<svg preserveAspectRatio="xMidYMid meet" data-bbox="9.575 49.077 180.85 105.848" viewBox="9.575 49.077 180.85 105.848" height="200" width="200" xmlns="http://www.w3.org/2000/svg" data-type="color" role="img" aria-labelledby="comp-k8e733m6-svgtitle"><defs><style>#comp-k8e733m6 svg [data-color="1"] {fill: #FE8340;}</style></defs><title id="comp-k8e733m6-svgtitle">Farmers in the Field Illustration</title>
    <g>
        <path d="M69.541 127.55h-1.585a.425.425 0 0 1-.42-.36l-2.03-13.152c-.793 3.67-2.275 10.825-2.275 13.088 0 .234-.19.425-.425.425h-1.981a.427.427 0 0 1-.424-.453l1.188-17.767a.425.425 0 0 1 .848.056L61.279 126.7h1.114c.199-3.681 2.662-14.585 2.771-15.066a.424.424 0 1 1 .834.029L68.32 126.7h.805l.387-17.352c.005-.234.215-.433.434-.415a.425.425 0 0 1 .416.435l-.396 17.767a.425.425 0 0 1-.425.415z" fill="#FE8340" data-color="1"></path>
        <path d="M70.334 108.994h-.019l-9.113-.396a.428.428 0 0 1-.404-.476c.066-.546 1.704-13.384 8.32-13.795a.393.393 0 0 1 .302.101l2.773 2.368a.424.424 0 0 1 .149.323v6.168l3.077 3.832a.423.423 0 0 1-.032.566l-.792.789a.424.424 0 0 1-.6 0l-4.358-4.343a.425.425 0 0 1-.122-.244l-.792-5.922a.426.426 0 0 1 .843-.114l.773 5.779 3.956 3.942.222-.221-2.931-3.651a.42.42 0 0 1-.093-.266v-6.121l-2.49-2.126c-5.142.526-6.948 10.332-7.295 12.58l8.644.375a.426.426 0 0 1-.018.852z" fill="#FE8340" data-color="1"></path>
        <path d="M73.107 110.178a.43.43 0 0 1-.247-.078l-5.547-3.947a.42.42 0 0 1-.172-.276l-.792-4.738a.424.424 0 1 1 .838-.14l.764 4.564 5.165 3.676.945-.628a.426.426 0 0 1 .47.709l-1.188.789a.447.447 0 0 1-.236.069z" fill="#FE8340" data-color="1"></path>
        <path d="M72.889 95.851a2.373 2.373 0 0 1-1.207-.351c-2.631-1.309-1.41-5.067-1.356-5.227a.425.425 0 0 1 .806.269c-.011.031-1.041 3.218.975 4.222.049.028.633.397 1.208.148.624-.271 1.092-1.172 1.354-2.607a.425.425 0 0 1 .836.152c-.321 1.761-.948 2.851-1.864 3.24-.26.112-.516.154-.752.154z" fill="#FE8340" data-color="1"></path>
        <path d="M78.257 93.991a.424.424 0 0 1-.213-.058l-9.509-5.527a.425.425 0 1 1 .427-.734l9.509 5.527a.425.425 0 0 1-.214.792z" fill="#FE8340" data-color="1"></path>
        <path d="M75.88 91.622a.425.425 0 0 1-.425-.425v-2.164l-1.609-1.283-2.135 1.064a.426.426 0 0 1-.379-.761l2.377-1.185a.428.428 0 0 1 .455.049l1.981 1.579c.101.08.16.203.16.332v2.369c0 .235-.19.425-.425.425z" fill="#FE8340" data-color="1"></path>
        <path d="M190 129.129H10a.425.425 0 1 1 0-.85h180a.425.425 0 1 1 0 .85z" fill="#FE8340" data-color="1"></path>
        <path d="M67.449 136.235H25.056a.425.425 0 1 1 0-.85h42.393a.425.425 0 1 1 0 .85z" fill="#FE8340" data-color="1"></path>
        <path d="M123.312 144.526H60.713a.425.425 0 1 1 0-.85h62.599a.425.425 0 1 1 0 .85z" fill="#FE8340" data-color="1"></path>
        <path d="M169.938 134.656H91.221a.425.425 0 1 1 0-.85h78.717a.425.425 0 1 1 0 .85z" fill="#FE8340" data-color="1"></path>
        <path d="M140.745 154.791h-33.677a.425.425 0 1 1 0-.85h33.677a.425.425 0 1 1 0 .85z" fill="#FE8340" data-color="1"></path>
        <path d="M75.289 136.297h-5.223a.425.425 0 1 1 0-.85h5.223a.425.425 0 1 1 0 .85z" fill="#FE8340" data-color="1"></path>
        <path d="M22.508 136.023h-2.474a.425.425 0 1 1 0-.85h2.474a.425.425 0 1 1 0 .85z" fill="#FE8340" data-color="1"></path>
        <path d="M130.818 144.516h-4.948a.425.425 0 1 1 0-.85h4.948a.425.425 0 1 1 0 .85z" fill="#FE8340" data-color="1"></path>
        <path d="M104.428 154.65h-8.247a.425.425 0 1 1 0-.85h8.247a.425.425 0 1 1 0 .85z" fill="#FE8340" data-color="1"></path>
        <path d="M78.312 136.297h-.825a.425.425 0 1 1 0-.85h.825a.425.425 0 1 1 0 .85z" fill="#FE8340" data-color="1"></path>
        <path d="M178.88 134.479h-5.223a.425.425 0 1 1 0-.85h5.223a.425.425 0 1 1 0 .85z" fill="#FE8340" data-color="1"></path>
        <path d="M181.904 134.479h-.825a.425.425 0 1 1 0-.85h.825a.425.425 0 1 1 0 .85z" fill="#FE8340" data-color="1"></path>
        <path d="M17.56 136.023h-1.65a.425.425 0 1 1 0-.85h1.649a.425.425 0 0 1 .001.85z" fill="#FE8340" data-color="1"></path>
        <path d="M134.254 144.378h-1.649a.425.425 0 1 1 0-.85h1.649a.425.425 0 1 1 0 .85z" fill="#FE8340" data-color="1"></path>
        <path d="M90.683 126.162a.426.426 0 0 1-.117-.834c.317-.09.914-.945 1.475-2.611.733-2.178.918-4.216.685-4.527-1.829-.742-3.717-1.58-5.543-2.39l-11.236-4.971a.425.425 0 1 1 .344-.778l11.237 4.971c1.821.809 3.705 1.644 5.575 2.417.574.237.591 1.108.555 1.744-.11 1.909-1.304 6.52-2.859 6.963a.427.427 0 0 1-.116.016z" fill="#FE8340" data-color="1"></path>
        <path d="M59.861 103.674a.435.435 0 0 1-.172-.036l-17.285-7.645a.425.425 0 1 1 .344-.778l17.285 7.645a.426.426 0 0 1-.172.814z" fill="#FE8340" data-color="1"></path>
        <path d="M117.754 128.807a.425.425 0 0 1-.425-.425V81.497a.425.425 0 0 1 .85 0v46.885c0 .234-.19.425-.425.425z" fill="#FE8340" data-color="1"></path>
        <path d="M103.313 128.807a.425.425 0 0 1-.425-.425V85.321a.425.425 0 0 1 .85 0v43.061c0 .234-.19.425-.425.425z" fill="#FE8340" data-color="1"></path>
        <path d="M22.218 128.807a.425.425 0 0 1-.425-.425V88.893a.425.425 0 0 1 .85 0v39.489c0 .234-.19.425-.425.425z" fill="#FE8340" data-color="1"></path>
        <path d="M33.004 128.807a.425.425 0 0 1-.425-.425v-21.409a.425.425 0 0 1 .85 0v21.409c0 .234-.19.425-.425.425z" fill="#FE8340" data-color="1"></path>
        <path d="M20.034 99.453a.4.4 0 0 1-.113-.016c-.221-.061-5.418-1.547-6.446-5.948-.918-3.935 1.829-8.803 8.165-14.469a.431.431 0 0 1 .65.019l.148.126c2.976 2.523 7.909 7.531 7.511 12.716-.217 2.829-1.998 5.289-5.294 7.312a.425.425 0 0 1-.444-.725c3.051-1.872 4.696-4.11 4.891-6.651.365-4.768-4.282-9.504-7.141-11.941-5.913 5.347-8.489 9.86-7.658 13.421.914 3.915 5.795 5.31 5.845 5.323a.423.423 0 0 1 .296.522.427.427 0 0 1-.41.311z" fill="#FE8340" data-color="1"></path>
        <path d="M31.52 112.055a.4.4 0 0 1-.113-.016c-.156-.043-3.837-1.096-4.568-4.227-.649-2.781 1.27-6.203 5.706-10.17a.425.425 0 0 1 .633.012l.095.081c2.085 1.768 5.543 5.28 5.263 8.939-.154 2.009-1.411 3.751-3.738 5.18a.425.425 0 0 1-.444-.725c2.082-1.277 3.204-2.798 3.335-4.52.245-3.207-2.854-6.411-4.827-8.108-3.953 3.598-5.748 6.745-5.194 9.117.617 2.646 3.934 3.592 3.967 3.602a.423.423 0 0 1 .296.522.428.428 0 0 1-.411.313z" fill="#FE8340" data-color="1"></path>
        <path d="M115.691 89.044a.4.4 0 0 1-.113-.016c-.186-.051-4.556-1.301-5.422-5.009-.771-3.307 1.523-7.385 6.823-12.124a.427.427 0 0 1 .639.013l.12.104c2.49 2.11 6.619 6.303 6.286 10.656-.182 2.381-1.678 4.45-4.445 6.148a.425.425 0 0 1-.444-.725c2.522-1.548 3.882-3.395 4.042-5.488.299-3.917-3.503-7.817-5.879-9.852-4.871 4.416-6.996 8.139-6.315 11.069.748 3.217 4.782 4.377 4.822 4.389a.423.423 0 0 1 .295.522.424.424 0 0 1-.409.313z" fill="#FE8340" data-color="1"></path>
        <path d="M100.854 112.603a.433.433 0 0 1-.178-.039c-.178-.082-4.392-2.083-5.973-7.723-1.87-6.67.709-15.312 7.667-25.688a.524.524 0 0 1 .093-.136.43.43 0 0 1 .705.122c.031.046.086.122.161.228 12.989 18.355 5.885 29.037 2.227 32.777a.424.424 0 1 1-.607-.594c3.495-3.574 10.253-13.778-2.166-31.483-6.491 9.819-9.003 18.289-7.268 24.521 1.466 5.265 5.477 7.186 5.518 7.204a.427.427 0 0 1-.179.811z" fill="#FE8340" data-color="1"></path>
        <path d="M40.553 143.021c-.529 0-1.366-.12-1.908-.793-.712-.885-.638-2.386.221-4.463a.431.431 0 0 1 .493-.251l.042.013c1.049.276 2.797.916 3.318 2.251.296.758.153 1.599-.425 2.498a.425.425 0 0 1-.714-.459c.422-.658.54-1.24.348-1.73-.263-.672-1.136-1.265-2.416-1.646-.747 1.957-.532 2.85-.206 3.255.506.627 1.578.453 1.588.453a.423.423 0 0 1 .494.343.424.424 0 0 1-.343.493c-.021.002-.214.036-.492.036z" fill="#FE8340" data-color="1"></path>
        <path d="M45.114 143.486c-.2 0-.411-.017-.631-.048a.425.425 0 0 1 .122-.841c.779.117 1.362-.021 1.732-.401.503-.517.684-1.551.506-2.864-2.101.128-2.828.692-3.064 1.157-.365.72.235 1.617.242 1.626a.424.424 0 0 1-.7.482c-.037-.053-.893-1.314-.303-2.486.511-1.016 1.916-1.569 4.174-1.646.229-.014.393.14.432.347l.006.042c.181 1.062.317 2.909-.683 3.936-.453.463-1.068.696-1.833.696z" fill="#FE8340" data-color="1"></path>
        <path d="M42.701 145.885a.424.424 0 0 1-.397-.273l-1.462-3.825a.425.425 0 1 1 .794-.303l1.058 2.768c.426-.963 1.218-2.331 2.522-3.158a.426.426 0 0 1 .455.719c-1.849 1.173-2.552 3.732-2.559 3.759a.425.425 0 0 1-.389.314l-.022-.001z" fill="#FE8340" data-color="1"></path>
        <path d="M86.623 142.117c-.2 0-.41-.017-.63-.048a.425.425 0 0 1 .122-.841c.78.115 1.362-.022 1.732-.401.503-.517.684-1.551.506-2.865-2.104.129-2.832.695-3.066 1.161-.359.715.236 1.611.243 1.621a.425.425 0 0 1-.699.483c-.037-.053-.892-1.313-.303-2.485.511-1.016 1.915-1.57 4.174-1.646a.437.437 0 0 1 .432.346l.006.045c.304 1.793.058 3.174-.684 3.935-.454.462-1.068.695-1.833.695z" fill="#FE8340" data-color="1"></path>
        <path d="M84.211 144.516a.424.424 0 0 1-.41-.535c.032-.118.799-2.909 2.925-4.259.198-.123.461-.066.586.132s.067.461-.131.587c-1.842 1.168-2.552 3.734-2.559 3.76a.427.427 0 0 1-.411.315z" fill="#FE8340" data-color="1"></path>
        <path d="M110.264 126.503c-.2 0-.41-.017-.63-.048a.425.425 0 0 1 .122-.841c.779.115 1.361-.021 1.732-.402.503-.517.684-1.551.506-2.864-2.101.129-2.828.693-3.064 1.158-.365.719.236 1.616.242 1.625a.425.425 0 0 1-.7.483c-.037-.054-.893-1.314-.303-2.486.511-1.016 1.916-1.57 4.174-1.646.218.006.393.14.432.346l.006.044c.18 1.062.317 2.909-.683 3.936-.453.461-1.068.695-1.834.695z" fill="#FE8340" data-color="1"></path>
        <path d="M107.853 128.901a.426.426 0 0 1-.411-.536c.032-.117.799-2.909 2.926-4.257a.426.426 0 0 1 .455.719c-1.85 1.172-2.553 3.732-2.56 3.759a.425.425 0 0 1-.41.315z" fill="#FE8340" data-color="1"></path>
        <path d="M125.664 141.842c-.56 0-.936-.224-1.167-.438-.982-.905-.892-2.985-.75-4.145h.004a.428.428 0 0 1 .444-.439c1.452.069 2.43.515 2.908 1.324.708 1.198-.008 2.69-.039 2.754a.425.425 0 0 1-.764-.374c.006-.011.546-1.149.069-1.951-.285-.479-.895-.771-1.815-.873-.141 1.506.047 2.645.519 3.079.217.201.514.256.905.179a.425.425 0 0 1 .171.832 2.41 2.41 0 0 1-.485.052z" fill="#FE8340" data-color="1"></path>
        <path d="M127.37 144.241a.425.425 0 0 1-.417-.346c-.005-.025-.511-2.607-1.811-3.771a.425.425 0 1 1 .566-.633c1.516 1.355 2.057 4.128 2.08 4.245a.424.424 0 0 1-.418.505z" fill="#FE8340" data-color="1"></path>
        <path d="M111.935 152.918c-.489 0-.819-.196-1.022-.385-.801-.738-.796-2.323-.65-3.523h.003c0-.022.001-.046.004-.068.032-.216.221-.36.44-.362 1.239.06 2.077.443 2.489 1.142.611 1.035-.004 2.314-.031 2.369a.423.423 0 0 1-.5.22.425.425 0 0 1-.313.563c-.152.03-.292.044-.42.044zm-.866-3.456c-.104 1.203.047 2.104.418 2.447.105.097.293.215.696.132a.429.429 0 0 1 .205.008.419.419 0 0 1 .016-.332c.004-.01.44-.929.061-1.566-.219-.37-.688-.6-1.396-.689z" fill="#FE8340" data-color="1"></path>
        <path d="M113.361 154.925a.425.425 0 0 1-.417-.346c-.004-.021-.423-2.158-1.493-3.113a.424.424 0 1 1 .566-.635c1.286 1.149 1.743 3.49 1.761 3.59a.424.424 0 0 1-.417.504z" fill="#FE8340" data-color="1"></path>
        <path d="M45.668 126.775c-.56 0-.936-.224-1.167-.438-.982-.905-.892-2.985-.75-4.145h.004a.425.425 0 0 1 .444-.439c1.452.069 2.43.515 2.908 1.324.708 1.198-.008 2.69-.039 2.754a.425.425 0 0 1-.764-.373c.006-.012.546-1.15.069-1.952-.285-.479-.895-.771-1.816-.873-.141 1.506.047 2.645.519 3.079.217.2.515.256.905.179a.426.426 0 0 1 .171.832 2.317 2.317 0 0 1-.484.052z" fill="#FE8340" data-color="1"></path>
        <path d="M47.374 129.175a.425.425 0 0 1-.417-.346c-.005-.025-.511-2.607-1.811-3.771a.425.425 0 1 1 .566-.633c1.516 1.355 2.057 4.128 2.08 4.245a.424.424 0 0 1-.418.505z" fill="#FE8340" data-color="1"></path>
        <path d="M19.072 93.427a.423.423 0 0 1-.279-.104l-2.199-1.918a.426.426 0 0 1 .559-.641l2.199 1.918a.426.426 0 0 1-.28.745z" fill="#FE8340" data-color="1"></path>
        <path d="M24.707 93.29a.424.424 0 0 1-.3-.726l1.375-1.37a.422.422 0 0 1 .601.001.424.424 0 0 1-.001.601l-1.375 1.37a.423.423 0 0 1-.3.124z" fill="#FE8340" data-color="1"></path>
        <path d="M33.004 109.783a.421.421 0 0 1-.313-.138l-3.074-3.345a.425.425 0 1 1 .626-.575l3.074 3.345a.425.425 0 0 1-.313.713z" fill="#FE8340" data-color="1"></path>
        <path d="M33.004 105.364a.425.425 0 0 1-.425-.425v-4.131a.425.425 0 0 1 .85 0v4.131c0 .235-.19.425-.425.425z" fill="#FE8340" data-color="1"></path>
        <path d="M100.579 105.617a.423.423 0 0 1-.254-.084l-2.199-1.644a.426.426 0 0 1 .509-.682l2.199 1.644a.426.426 0 0 1-.255.766z" fill="#FE8340" data-color="1"></path>
        <path d="M100.579 97.398a.423.423 0 0 1-.279-.104l-2.199-1.917a.426.426 0 0 1 .559-.641l2.199 1.917a.426.426 0 0 1-.28.745z" fill="#FE8340" data-color="1"></path>
        <path d="M105.04 93.541a.424.424 0 0 1-.25-.769l1.725-1.253a.424.424 0 1 1 .499.688l-1.726 1.253a.418.418 0 0 1-.248.081z" fill="#FE8340" data-color="1"></path>
        <path d="M106.077 102.056a.426.426 0 0 1-.274-.75l1.736-1.462a.426.426 0 0 1 .548.651l-1.736 1.462a.43.43 0 0 1-.274.099z" fill="#FE8340" data-color="1"></path>
        <path d="M51.518 128.936a.425.425 0 0 1-.425-.425V59.088a.425.425 0 0 1 .85 0v69.423a.427.427 0 0 1-.425.425z" fill="#FE8340" data-color="1"></path>
        <path d="M49.058 82.797a.433.433 0 0 1-.178-.039c-.178-.082-4.391-2.082-5.973-7.723-1.87-6.669.709-15.311 7.667-25.688a.524.524 0 0 1 .093-.136.43.43 0 0 1 .705.122c.031.046.086.122.161.228 12.989 18.355 5.884 29.038 2.227 32.778a.424.424 0 1 1-.608-.594c3.495-3.574 10.253-13.779-2.166-31.484-6.491 9.82-9.003 18.29-7.268 24.522 1.466 5.264 5.477 7.185 5.518 7.203a.427.427 0 0 1-.178.811z" fill="#FE8340" data-color="1"></path>
        <path d="M48.783 75.812a.423.423 0 0 1-.254-.084l-2.199-1.644a.426.426 0 0 1 .509-.682l2.199 1.644a.426.426 0 0 1-.255.766z" fill="#FE8340" data-color="1"></path>
        <path d="M51.518 69.978a.423.423 0 0 1-.279-.104l-4.934-4.302a.426.426 0 0 1 .559-.641l4.934 4.302a.426.426 0 0 1-.28.745z" fill="#FE8340" data-color="1"></path>
        <path d="M53.456 64.032a.423.423 0 0 1-.379-.615l.825-1.644a.428.428 0 0 1 .57-.189c.21.105.295.36.189.57l-.825 1.644a.424.424 0 0 1-.38.234z" fill="#FE8340" data-color="1"></path>
        <path d="M51.517 77.486a.427.427 0 0 1-.364-.644l4.138-6.88a.425.425 0 1 1 .728.437l-4.138 6.88a.42.42 0 0 1-.364.207z" fill="#FE8340" data-color="1"></path>
        <path d="M117.921 86.116a.427.427 0 0 1-.324-.149l-4.146-4.88a.427.427 0 0 1 .048-.6.427.427 0 0 1 .599.049l4.146 4.88a.427.427 0 0 1-.048.6.426.426 0 0 1-.275.1z" fill="#FE8340" data-color="1"></path>
        <path d="M120.097 83.977a.427.427 0 0 1-.391-.593l.825-1.918a.427.427 0 0 1 .559-.223.427.427 0 0 1 .223.559l-.825 1.918a.426.426 0 0 1-.391.257z" fill="#FE8340" data-color="1"></path>
        <path d="M117.623 79.045a.425.425 0 0 1-.425-.425v-1.917a.425.425 0 0 1 .85 0v1.917c0 .234-.19.425-.425.425z" fill="#FE8340" data-color="1"></path>
        <path d="M134.693 123.703c-.823 0-2.113-.186-2.942-1.214-1.114-1.383-.977-3.781.408-7.129a.422.422 0 0 1 .543-.234c1.698.444 4.513 1.466 5.335 3.571.458 1.171.229 2.482-.68 3.896a.424.424 0 1 1-.715-.459c.753-1.173.956-2.226.604-3.129-.485-1.242-2.098-2.318-4.443-2.973-1.111 2.815-1.248 4.859-.391 5.923.957 1.186 2.889.855 2.907.853a.425.425 0 1 1 .151.836c-.034.007-.34.059-.777.059z" fill="#FE8340" data-color="1"></path>
        <path d="M142.272 124.476c-.318 0-.652-.025-1.004-.076a.425.425 0 0 1-.359-.481.431.431 0 0 1 .481-.36c1.387.201 2.438-.051 3.12-.75.93-.955 1.247-2.858.88-5.248-3.039.152-4.965.873-5.583 2.093-.681 1.347.411 2.967.422 2.982a.427.427 0 0 1-.109.591.424.424 0 0 1-.59-.108c-.057-.082-1.389-2.044-.483-3.843.799-1.589 3.05-2.457 6.691-2.58a.422.422 0 0 1 .438.399c.293 1.718.521 4.689-1.056 6.308-.698.713-1.652 1.073-2.848 1.073z" fill="#FE8340" data-color="1"></path>
        <path d="M138.269 128.46a.424.424 0 0 1-.397-.273l-2.429-6.354a.425.425 0 1 1 .794-.303l2.009 5.254c.597-1.532 1.931-4.229 4.351-5.765a.426.426 0 0 1 .455.719c-3.157 2.001-4.36 6.364-4.372 6.408a.423.423 0 0 1-.389.313l-.022.001z" fill="#FE8340" data-color="1"></path>
        <path d="M178.875 127.187h-1.981a.425.425 0 0 1-.425-.425c0-2.264-1.482-9.419-2.275-13.088l-2.031 13.152a.424.424 0 0 1-.42.36h-1.584a.425.425 0 0 1-.425-.415l-.396-17.767a.426.426 0 0 1 .416-.435c.259.036.43.181.434.415l.387 17.352h.805l2.322-15.037a.423.423 0 0 1 .405-.36.438.438 0 0 1 .429.331c.109.481 2.572 11.385 2.771 15.066h1.114l-1.158-17.313a.424.424 0 0 1 .396-.452.42.42 0 0 1 .452.396l1.189 17.767a.424.424 0 0 1-.425.453z" fill="#FE8340" data-color="1"></path>
        <path d="M169.366 108.63a.425.425 0 0 1-.018-.849l8.644-.374c-.348-2.249-2.157-12.054-7.295-12.58l-2.49 2.126v6.121c0 .097-.033.19-.093.266l-2.931 3.651.222.221 3.956-3.942.773-5.779a.42.42 0 0 1 .478-.364.424.424 0 0 1 .365.478l-.792 5.922a.42.42 0 0 1-.122.244l-4.358 4.343a.424.424 0 0 1-.6 0l-.792-.789a.424.424 0 0 1-.032-.566l3.076-3.832v-6.168c0-.124.054-.242.149-.323l2.773-2.368a.415.415 0 0 1 .302-.101c6.616.411 8.253 13.249 8.319 13.795a.424.424 0 0 1-.404.476l-9.112.395c-.006-.003-.012-.003-.018-.003z" fill="#FE8340" data-color="1"></path>
        <path d="M166.593 109.814a.425.425 0 0 1-.235-.07l-1.188-.789a.425.425 0 0 1 .47-.709l.945.628 5.165-3.677.763-4.563a.425.425 0 1 1 .838.14l-.792 4.737a.429.429 0 0 1-.172.276l-5.547 3.948a.424.424 0 0 1-.247.079z" fill="#FE8340" data-color="1"></path>
        <path d="M166.813 95.487c-.236 0-.493-.041-.755-.152-.916-.39-1.543-1.479-1.864-3.24a.425.425 0 0 1 .836-.152c.263 1.441.733 2.344 1.361 2.61.572.24 1.15-.122 1.155-.124 2.062-1.031 1.031-4.219 1.021-4.25a.425.425 0 0 1 .806-.269c.054.159 1.276 3.919-1.402 5.254a2.31 2.31 0 0 1-1.158.323z" fill="#FE8340" data-color="1"></path>
        <path d="M161.442 93.628a.425.425 0 0 1-.214-.792l9.509-5.527a.425.425 0 0 1 .427.734l-9.509 5.527a.422.422 0 0 1-.213.058z" fill="#FE8340" data-color="1"></path>
        <path d="M163.819 91.259a.425.425 0 0 1-.425-.425v-2.369c0-.129.059-.252.16-.332l1.981-1.579a.43.43 0 0 1 .455-.049l2.377 1.185a.426.426 0 0 1-.379.761l-2.134-1.064-1.609 1.283v2.164a.427.427 0 0 1-.426.425z" fill="#FE8340" data-color="1"></path>
        <path d="M165.391 104.521a.423.423 0 0 1-.3-.124c-1.407-1.402-3.857-1.402-5.265 0a.424.424 0 1 1-.6-.602c.863-.861 2.011-1.335 3.232-1.335s2.369.474 3.232 1.335a.424.424 0 0 1-.299.726z" fill="#FE8340" data-color="1"></path>
        <path d="M164.065 111.254a.425.425 0 0 1-.164-.817 3.725 3.725 0 0 0 1.188-.796.424.424 0 1 1 .6.602c-.421.42-.912.749-1.458.978a.446.446 0 0 1-.166.033z" fill="#FE8340" data-color="1"></path>
        <path d="M162.458 118.031h-7.516a.425.425 0 0 1-.425-.425v-11.88c0-.234.19-.425.425-.425h7.516c.235 0 .425.19.425.425v11.88c0 .235-.19.425-.425.425zm-7.091-.849h6.667v-11.03h-6.667v11.03z" fill="#FE8340" data-color="1"></path>
        <path d="M154.683 110.025h-5.702a.425.425 0 0 1-.425-.425v-2.324c0-.234.19-.425.425-.425h5.702c.235 0 .425.19.425.425v2.324c0 .235-.19.425-.425.425zm-5.277-.849h4.852v-1.475h-4.852v1.475z" fill="#FE8340" data-color="1"></path>
        <path d="M144.902 108.218a.428.428 0 0 1-.326-.151c-.005-.006-.484-.572-1.389-1.323a.425.425 0 0 1 .542-.655c.971.805 1.478 1.406 1.499 1.432a.426.426 0 0 1-.326.697z" fill="#FE8340" data-color="1"></path>
        <path d="M140.518 104.875a.42.42 0 0 1-.199-.05 17.247 17.247 0 0 0-3.194-1.31.424.424 0 1 1 .241-.814c1.153.341 2.281.804 3.353 1.374a.424.424 0 0 1-.201.8zm-10.289-1.95a.424.424 0 0 1-.045-.848 19.205 19.205 0 0 1 3.62-.045.426.426 0 0 1 .387.46.431.431 0 0 1-.459.388 18.4 18.4 0 0 0-3.457.043.678.678 0 0 1-.046.002z" fill="#FE8340" data-color="1"></path>
        <path d="M124.84 104.22a.424.424 0 0 1-.147-.823 24.316 24.316 0 0 1 1.937-.63.424.424 0 1 1 .228.818c-.611.17-1.24.375-1.871.608a.394.394 0 0 1-.147.027z" fill="#FE8340" data-color="1"></path>
        <path d="M144.355 110.58a.394.394 0 0 1-.09-.01c-.006-.001-.75-.16-1.943-.348a.425.425 0 1 1 .132-.839 38.53 38.53 0 0 1 1.99.357.425.425 0 0 1-.089.84z" fill="#FE8340" data-color="1"></path>
        <path d="M132.554 109.753a.424.424 0 0 1-.04-.848c1.524-.146 3.333-.154 4.995-.058a.425.425 0 0 1 .4.448c-.013.233-.211.429-.449.399-1.62-.092-3.384-.085-4.865.056-.013.003-.027.003-.041.003z" fill="#FE8340" data-color="1"></path>
        <path d="M126.117 112.034a.424.424 0 0 1-.288-.738 7.171 7.171 0 0 1 1.768-1.171.422.422 0 0 1 .567.199.423.423 0 0 1-.2.566c-.61.293-1.135.64-1.56 1.03a.414.414 0 0 1-.287.114z" fill="#FE8340" data-color="1"></path>
        <path d="M140.707 107.673a.433.433 0 0 1-.164-.033c-.007-.003-.692-.287-1.845-.594a.425.425 0 0 1 .219-.823c1.214.323 1.925.62 1.955.633a.425.425 0 0 1-.165.817z" fill="#FE8340" data-color="1"></path>
        <path d="M135.254 106.402a.708.708 0 0 1-.046-.002 22.12 22.12 0 0 0-3.549-.108.425.425 0 0 1-.04-.849 23.53 23.53 0 0 1 3.681.112.424.424 0 0 1-.046.847z" fill="#FE8340" data-color="1"></path>
        <path d="M126.117 107.309a.424.424 0 0 1-.133-.828 20.96 20.96 0 0 1 1.968-.546.425.425 0 0 1 .187.83c-.634.142-1.269.317-1.888.522a.422.422 0 0 1-.134.022z" fill="#FE8340" data-color="1"></path>
        <path d="M143.261 102.584a.428.428 0 0 1-.291-.114c-.096-.076-.665-.426-1.642-.876a.424.424 0 1 1 .356-.771c.873.401 1.698.856 1.877 1.036a.426.426 0 0 1-.3.725z" fill="#FE8340" data-color="1"></path>
        <path d="M138.404 100.453a.422.422 0 0 1-.125-.019 23.817 23.817 0 0 0-3.175-.745.426.426 0 0 1-.351-.488.43.43 0 0 1 .488-.352c1.089.178 2.195.438 3.287.772a.425.425 0 0 1-.124.832zm-9.843-.749a.425.425 0 0 1-.075-.843 18.552 18.552 0 0 1 3.326-.295c.235 0 .453.19.453.425s-.163.425-.397.425h-.055c-1.083 0-2.151.095-3.173.281a.445.445 0 0 1-.079.007z" fill="#FE8340" data-color="1"></path>
        <path d="M123.564 101.493a.425.425 0 0 1-.208-.796 16.432 16.432 0 0 1 1.852-.887.424.424 0 1 1 .318.787c-.595.241-1.187.524-1.756.842a.405.405 0 0 1-.206.054z" fill="#FE8340" data-color="1"></path>
        <path d="M146.908 106.219a.426.426 0 0 1-.322-.147l-2.188-2.545a.426.426 0 0 1 .645-.555l2.188 2.545a.426.426 0 0 1-.323.702z" fill="#FE8340" data-color="1"></path>
        <path d="M153.589 73.683c-3.481 0-6.313-2.822-6.313-6.292s2.832-6.293 6.313-6.293 6.313 2.823 6.313 6.293-2.832 6.292-6.313 6.292zm0-11.736c-3.012 0-5.463 2.442-5.463 5.443s2.451 5.442 5.463 5.442 5.463-2.441 5.463-5.442-2.45-5.443-5.463-5.443z" fill="#FE8340" data-color="1"></path>
        <path d="M146.951 81.684a.424.424 0 0 1-.374-.625l3.426-6.4a.425.425 0 1 1 .749.4l-3.426 6.4a.423.423 0 0 1-.375.225z" fill="#FE8340" data-color="1"></path>
        <path d="M145.239 67.175h-.005l-16.701-.213a.424.424 0 0 1-.419-.431.436.436 0 0 1 .43-.419l16.701.213a.424.424 0 0 1-.006.85z" fill="#FE8340" data-color="1"></path>
        <path d="M139.022 75.85a.425.425 0 0 1-.228-.784l6.645-4.194a.425.425 0 0 1 .454.719l-6.645 4.194a.423.423 0 0 1-.226.065z" fill="#FE8340" data-color="1"></path>
        <path d="M148.237 60.987a.422.422 0 0 1-.352-.186l-5.947-8.745a.425.425 0 0 1 .703-.479l5.947 8.745a.425.425 0 0 1-.351.665z" fill="#FE8340" data-color="1"></path>
        <path d="M156.158 77.63a.426.426 0 0 1-.412-.321l-.428-1.707a.425.425 0 1 1 .825-.207l.428 1.707a.425.425 0 0 1-.413.528z" fill="#FE8340" data-color="1"></path>
        <path d="M166.436 81.684a.422.422 0 0 1-.309-.133l-7.066-7.468a.424.424 0 1 1 .618-.584l7.066 7.468a.424.424 0 0 1-.309.717z" fill="#FE8340" data-color="1"></path>
        <path d="M153.161 59.067a.424.424 0 0 1-.42-.364l-.428-2.987a.425.425 0 0 1 .841-.121l.428 2.987a.425.425 0 0 1-.421.485z" fill="#FE8340" data-color="1"></path>
        <path d="M160.869 64.401a.425.425 0 0 1-.138-.827l6.852-2.347a.425.425 0 1 1 .276.805l-6.852 2.347a.415.415 0 0 1-.138.022z" fill="#FE8340" data-color="1"></path>
        <path d="M145.773 63.868a.425.425 0 0 1-.197-.049l-11.348-5.975a.424.424 0 1 1 .396-.752l11.348 5.975a.424.424 0 0 1-.199.801z" fill="#FE8340" data-color="1"></path>
        <path d="M154.125 71.763a.425.425 0 1 1 0-.85 2.998 2.998 0 0 0 3.001-2.989.425.425 0 0 1 .85 0 3.85 3.85 0 0 1-3.851 3.839z" fill="#FE8340" data-color="1"></path>
        <path d="M22.218 91.723a.426.426 0 0 1-.312-.136l-4.246-4.585a.426.426 0 0 1 .624-.579l4.246 4.585a.426.426 0 0 1-.312.715z" fill="#FE8340" data-color="1"></path>
        <path d="M22.218 85.746a.425.425 0 0 1-.425-.425v-2.506a.425.425 0 0 1 .85 0v2.506c0 .235-.19.425-.425.425z" fill="#FE8340" data-color="1"></path>
        <path d="M23.81 88.464a.426.426 0 0 1-.289-.737l1.584-1.466a.427.427 0 0 1 .601.022.426.426 0 0 1-.023.601l-1.584 1.466a.418.418 0 0 1-.289.114z" fill="#FE8340" data-color="1"></path>
        <path d="M34.218 106.766a.425.425 0 0 1-.259-.762l2.026-1.56a.424.424 0 1 1 .518.674l-2.026 1.56a.429.429 0 0 1-.259.088z" fill="#FE8340" data-color="1"></path>
        <path d="M49.607 61.339a.419.419 0 0 1-.27-.097l-1.071-.882a.426.426 0 0 1 .54-.657l1.071.882a.426.426 0 0 1-.27.754z" fill="#FE8340" data-color="1"></path>
        <path d="M47.683 70.897a.422.422 0 0 1-.22-.062l-2.826-1.717a.426.426 0 0 1 .441-.727l2.826 1.717a.426.426 0 0 1-.221.789z" fill="#FE8340" data-color="1"></path>
        <path d="M54.45 67.371a.424.424 0 0 1-.318-.708l1.863-2.089a.425.425 0 0 1 .635.567l-1.863 2.089a.428.428 0 0 1-.317.141z" fill="#FE8340" data-color="1"></path>
        <path d="M51.517 81.013a.427.427 0 0 1-.209-.055l-2.702-1.531a.426.426 0 0 1 .419-.74l2.702 1.531a.426.426 0 0 1-.21.795z" fill="#FE8340" data-color="1"></path>
        <path d="M103.313 104.538a.418.418 0 0 1-.266-.094l-6.117-4.918a.425.425 0 0 1 .532-.662l6.117 4.918a.425.425 0 0 1-.266.756z" fill="#FE8340" data-color="1"></path>
        <path d="M103.313 109.271a.425.425 0 0 1-.3-.726l3.451-3.437a.424.424 0 1 1 .6.602l-3.451 3.437a.422.422 0 0 1-.3.124z" fill="#FE8340" data-color="1"></path>
        <path d="M103.157 93.342a.427.427 0 0 1-.284-.108l-3.446-3.095a.426.426 0 0 1 .569-.633l3.446 3.095a.426.426 0 0 1-.285.741z" fill="#FE8340" data-color="1"></path>
        <path d="M103.313 99.416a.425.425 0 0 1-.28-.746l4.081-3.565a.426.426 0 0 1 .56.641l-4.081 3.565a.42.42 0 0 1-.28.105z" fill="#FE8340" data-color="1"></path>
        <path d="M116.777 80.387a.424.424 0 0 1-.305-.129l-1.851-1.903a.425.425 0 1 1 .609-.592l1.851 1.903a.425.425 0 0 1-.304.721z" fill="#FE8340" data-color="1"></path>
        <path d="M118.978 80.561a.425.425 0 0 1-.323-.702l1.781-2.077a.425.425 0 1 1 .646.553l-1.781 2.077a.424.424 0 0 1-.323.149z" fill="#FE8340" data-color="1"></path>
    </g>
</svg>