<svg preserveAspectRatio="xMidYMid meet" data-bbox="11.457 13.351 175.299 175.299" viewBox="11.457 13.351 175.299 175.299" height="200" width="200" xmlns="http://www.w3.org/2000/svg" data-type="color" role="img"><defs><style>#comp-jrtafpz8 svg [data-color="1"] {fill: #FE8340;}</style></defs>
    <g>
        <path d="M99.071 188.65c-47.062 0-86.07-37.51-87.569-84.878-1.529-48.306 36.527-88.849 84.832-90.377a91.078 91.078 0 0 1 2.809-.044c47.062 0 86.07 37.51 87.569 84.878 1.528 48.306-36.527 88.849-84.833 90.377-.937.029-1.878.044-2.808.044zm.072-174c-.921 0-1.841.015-2.768.044C48.787 16.2 11.294 56.142 12.8 103.731c1.507 47.589 41.476 85.095 89.038 83.575 47.589-1.505 85.081-41.447 83.575-89.037-1.477-46.663-39.912-83.619-86.27-83.619z" fill="#FE6340" data-color="1"></path>
        <path d="M134.689 146.688c-.573 0-1.486-.132-2.085-.874-.771-.954-.709-2.537.185-4.703a.647.647 0 0 1 .754-.384c.019.004.037.01.055.016 1.084.285 2.899.957 3.458 2.385.325.832.176 1.743-.442 2.71a.651.651 0 0 1-.865.217.65.65 0 0 1-.533.593c-.025.005-.231.04-.527.04zm.411-1.329c.113 0 .222.029.316.083a.653.653 0 0 1 .101-.304c.388-.605.495-1.107.327-1.535-.225-.575-.967-1.092-2.064-1.452-.655 1.82-.396 2.561-.165 2.847.418.517 1.358.373 1.369.372a.576.576 0 0 1 .116-.011z" fill="#FE6340" data-color="1"></path>
        <path d="M139.241 147.156c-.212 0-.434-.017-.666-.051a.65.65 0 0 1-.554-.698.652.652 0 0 1-.761-.241c-.04-.058-.968-1.43-.316-2.722.552-1.095 2.02-1.691 4.361-1.77.352-.03.601.213.661.528l.008.059c.314 1.866.046 3.318-.749 4.132-.495.508-1.161.763-1.984.763zm-.574-1.344c.031 0 .062.002.095.007.712.102 1.212-.006 1.533-.335.431-.441.597-1.33.472-2.479-1.929.153-2.497.695-2.662 1.023-.299.592.221 1.392.226 1.4a.643.643 0 0 1 .112.424.668.668 0 0 1 .224-.04z" fill="#FE6340" data-color="1"></path>
        <path d="M136.828 149.561a.65.65 0 0 1-.607-.418l-1.461-3.835a.65.65 0 0 1 1.215-.463l.869 2.282c.473-.931 1.234-2.056 2.375-2.782a.65.65 0 1 1 .697 1.096c-1.774 1.129-2.453 3.612-2.46 3.637a.648.648 0 0 1-.595.481.188.188 0 0 1-.033.002z" fill="#FE6340" data-color="1"></path>
        <path d="M46.968 148.455c-.573 0-1.486-.132-2.085-.874-.771-.954-.708-2.537.186-4.703a.648.648 0 0 1 .754-.384c.019.004.037.01.056.016 1.828.482 3.041 1.325 3.456 2.385.325.832.176 1.743-.442 2.71a.652.652 0 0 1-.865.217.65.65 0 0 1-.533.593c-.025.005-.231.04-.527.04zm.411-1.329c.113 0 .222.029.316.083a.653.653 0 0 1 .101-.304c.388-.605.495-1.107.327-1.535-.225-.575-.966-1.092-2.063-1.452-.656 1.82-.396 2.561-.165 2.847.416.516 1.357.373 1.368.371a.657.657 0 0 1 .116-.01z" fill="#FE6340" data-color="1"></path>
        <path d="M51.52 148.923c-.212 0-.434-.017-.666-.051a.65.65 0 0 1-.554-.698.65.65 0 0 1-.76-.242c-.04-.058-.968-1.43-.316-2.723.552-1.095 2.02-1.69 4.36-1.77h.022a.65.65 0 0 1 .647.587c.314 1.866.046 3.318-.749 4.132-.495.509-1.161.765-1.984.765zm-.573-1.344c.031 0 .062.002.095.007.708.104 1.213-.005 1.533-.334.431-.441.597-1.33.472-2.479-1.929.153-2.496.695-2.661 1.023-.299.592.221 1.392.226 1.4a.642.642 0 0 1 .112.423.634.634 0 0 1 .223-.04z" fill="#FE6340" data-color="1"></path>
        <path d="M49.107 151.328a.65.65 0 0 1-.607-.418l-1.461-3.835a.65.65 0 0 1 1.215-.463l.869 2.282c.473-.931 1.234-2.056 2.375-2.782a.65.65 0 1 1 .697 1.096c-1.774 1.129-2.453 3.612-2.46 3.637a.648.648 0 0 1-.595.481c-.011.002-.022.002-.033.002z" fill="#FE6340" data-color="1"></path>
        <path d="M161.376 107.987c-.866 0-2.231-.197-3.116-1.293-1.174-1.454-1.049-3.936.37-7.378a.65.65 0 0 1 .82-.363c1.729.455 4.608 1.508 5.469 3.707.487 1.246.252 2.629-.697 4.113a.65.65 0 1 1-1.095-.701c.714-1.113.909-2.102.582-2.938-.447-1.144-1.927-2.147-4.09-2.786-1.014 2.648-1.135 4.554-.348 5.53.858 1.062 2.665.771 2.685.77a.649.649 0 1 1 .231 1.279c-.037.005-.355.06-.811.06z" fill="#FE6340" data-color="1"></path>
        <path d="M168.944 108.762a7.07 7.07 0 0 1-1.039-.08.65.65 0 1 1 .187-1.286c1.309.19 2.29-.039 2.918-.682.857-.879 1.161-2.641.851-4.874-2.83.168-4.616.843-5.181 1.963-.615 1.222.395 2.748.405 2.763a.65.65 0 1 1-1.07.737c-.061-.087-1.464-2.164-.496-4.085.841-1.668 3.153-2.578 6.874-2.704h.022a.65.65 0 0 1 .648.597c.299 1.762.526 4.82-1.123 6.511-.739.758-1.744 1.14-2.996 1.14z" fill="#FE6340" data-color="1"></path>
        <path d="M164.942 112.756a.65.65 0 0 1-.607-.418l-2.427-6.371a.65.65 0 0 1 1.215-.463l1.804 4.735c.688-1.6 2.009-3.95 4.217-5.355a.65.65 0 0 1 .697 1.096c-3.076 1.958-4.259 6.25-4.271 6.293a.65.65 0 0 1-.595.481c-.012.002-.022.002-.033.002z" fill="#FE6340" data-color="1"></path>
        <path d="M77.853 108.513a.65.65 0 0 1-.65-.65v-16.89H59.906v16.89a.65.65 0 1 1-1.3 0v-17.54a.65.65 0 0 1 .65-.65h18.598a.65.65 0 0 1 .65.65v17.54a.651.651 0 0 1-.651.65z" fill="#FE6340" data-color="1"></path>
        <path d="M59.226 108.513h-7.152a.65.65 0 0 1-.65-.65v-17.54a.65.65 0 0 1 .65-.65h7.152a.65.65 0 0 1 .65.65v17.54a.65.65 0 0 1-.65.65zm-6.502-1.3h5.852v-16.24h-5.852v16.24z" fill="#FE6340" data-color="1"></path>
        <path d="M85.035 108.513h-7.152a.65.65 0 0 1-.65-.65v-17.54a.65.65 0 0 1 .65-.65h7.152a.65.65 0 0 1 .65.65v17.54a.65.65 0 0 1-.65.65zm-6.502-1.3h5.852v-16.24h-5.852v16.24z" fill="#FE6340" data-color="1"></path>
        <path d="M74.711 81.134H62.173a.65.65 0 0 1-.65-.65V69.929a.65.65 0 0 1 .28-.534l6.198-4.292a.65.65 0 0 1 .734-.004l6.34 4.292a.649.649 0 0 1 .286.538v10.555a.649.649 0 0 1-.65.65zm-11.887-1.3h11.237v-9.56l-5.686-3.85-5.552 3.845v9.565z" fill="#FE6340" data-color="1"></path>
        <path d="M42.731 82.894a.65.65 0 0 1-.571-.96l9.156-16.832a.659.659 0 0 1 .198-.222L67.54 53.659a.648.648 0 0 1 .735-.007l16.712 11.221a.645.645 0 0 1 .205.223l9.386 16.832a.65.65 0 0 1-1.135.633l-9.311-16.695-16.211-10.887-15.535 10.878-9.083 16.697a.651.651 0 0 1-.572.34z" fill="#FE6340" data-color="1"></path>
        <path d="M91.542 108.477a.65.65 0 0 1-.65-.65v-26.93a.65.65 0 1 1 1.3 0v26.93a.649.649 0 0 1-.65.65z" fill="#FE6340" data-color="1"></path>
        <path d="M45.537 108.477a.65.65 0 0 1-.65-.65v-26.93a.65.65 0 1 1 1.3 0v26.93a.65.65 0 0 1-.65.65z" fill="#FE6340" data-color="1"></path>
        <path d="M139.324 178.156a.645.645 0 0 1-.487-.22l-61.441-69.644a.65.65 0 1 1 .975-.86l61.441 69.644a.65.65 0 0 1-.488 1.08z" fill="#FE6340" data-color="1"></path>
        <path d="M56.879 81.547a.652.652 0 0 1-.651-.65V68.105a.65.65 0 0 1 .942-.582l3.143 1.571a.65.65 0 0 1-.582 1.163l-2.201-1.101v10.991l2.4-.343a.65.65 0 1 1 .183 1.287l-3.143.449a.541.541 0 0 1-.091.007z" fill="#FE6340" data-color="1"></path>
        <path d="M79.75 81.547a.71.71 0 0 1-.092-.006l-3.142-.449a.65.65 0 0 1 .183-1.287l2.399.343V69.157l-2.2 1.101a.65.65 0 0 1-.582-1.163l3.142-1.571a.652.652 0 0 1 .942.582v12.792a.648.648 0 0 1-.65.649z" fill="#FE6340" data-color="1"></path>
        <path d="M124.324 127.115a.65.65 0 0 1-.647-.715l4.956-49.054a.65.65 0 1 1 1.293.131l-4.956 49.054a.65.65 0 0 1-.646.584z" fill="#FE6340" data-color="1"></path>
        <path d="M139.562 127.115a.65.65 0 0 1-.646-.584l-4.955-49.054a.65.65 0 0 1 1.293-.131l4.955 49.054a.65.65 0 0 1-.647.715z" fill="#FE6340" data-color="1"></path>
        <path d="M139.562 124.481a.646.646 0 0 1-.302-.075l-14.018-7.365a.649.649 0 0 1-.057-1.117l11.67-7.754-10.204-7.608a.65.65 0 0 1-.059-.992l8.724-8.28-6.979-6.28a.65.65 0 0 1 .869-.967l7.333 6.598c.135.122.071.423.074.604.002.182.095.516-.037.641l-8.53 8.095 10.011 7.463c.169.126.207.5.201.711s.262.469.085.586l-11.525 7.658 12.851 6.752c.317.167-.083.496-.25.814-.115.224.377.516.143.516z" fill="#FE6340" data-color="1"></path>
        <path d="M132.006 78.197c-4.053 0-7.351-3.297-7.351-7.35s3.298-7.35 7.351-7.35 7.35 3.297 7.35 7.35-3.297 7.35-7.35 7.35zm0-13.399c-3.336 0-6.05 2.714-6.05 6.05s2.714 6.05 6.05 6.05 6.049-2.714 6.049-6.05-2.713-6.05-6.049-6.05z" fill="#FE6340" data-color="1"></path>
        <path d="M119.791 64.642a2.893 2.893 0 0 1-1.974-.775l-9.473-8.806a2.904 2.904 0 0 1-.15-4.1 2.904 2.904 0 0 1 4.101-.15l9.473 8.806c.566.525.894 1.243.922 2.019s-.246 1.516-.771 2.081h-.001a2.892 2.892 0 0 1-2.127.925zm-9.47-13.307c-.43 0-.858.171-1.174.511a1.604 1.604 0 0 0 .083 2.263l9.473 8.806c.646.6 1.661.563 2.264-.083.289-.312.439-.719.424-1.148s-.195-.825-.507-1.114l-9.473-8.806a1.595 1.595 0 0 0-1.09-.429zm11.121 11.94h.01-.01z" fill="#FE6340" data-color="1"></path>
        <path d="M124.716 66.969a.649.649 0 0 1-.442-.174l-6.151-5.718a.65.65 0 1 1 .885-.952l6.151 5.718a.65.65 0 0 1-.443 1.126z" fill="#FE6340" data-color="1"></path>
        <path d="M144.049 64.641c-.036 0-.073 0-.109-.002a2.878 2.878 0 0 1-2.019-.921 2.88 2.88 0 0 1-.772-2.082 2.878 2.878 0 0 1 .921-2.019l9.473-8.806a2.841 2.841 0 0 1 2.081-.771 2.882 2.882 0 0 1 2.02.921 2.905 2.905 0 0 1-.15 4.1l-9.472 8.806a2.884 2.884 0 0 1-1.973.774zm9.466-13.304c-.407 0-.791.15-1.088.426l-9.473 8.806c-.311.29-.491.685-.507 1.114s.136.837.425 1.148h.001a1.59 1.59 0 0 0 1.113.507c.446.024.838-.136 1.149-.425l9.472-8.806a1.603 1.603 0 0 0 .082-2.263 1.582 1.582 0 0 0-1.114-.507h-.06z" fill="#FE6340" data-color="1"></path>
        <path d="M139.122 66.969a.65.65 0 0 1-.443-1.126l6.15-5.718a.649.649 0 1 1 .885.952l-6.15 5.718a.645.645 0 0 1-.442.174z" fill="#FE6340" data-color="1"></path>
        <path d="M153.514 91.59a2.879 2.879 0 0 1-1.972-.773l-9.473-8.806a2.882 2.882 0 0 1-.921-2.019 2.884 2.884 0 0 1 .772-2.082 2.879 2.879 0 0 1 2.019-.921 2.868 2.868 0 0 1 2.081.772l9.472 8.806a2.904 2.904 0 0 1 .15 4.1 2.879 2.879 0 0 1-2.02.921l-.108.002zm-9.467-13.303l-.061.001a1.588 1.588 0 0 0-1.113.507h-.001c-.289.311-.44.719-.425 1.148s.196.825.507 1.114l9.473 8.806c.312.29.72.431 1.148.425.43-.016.825-.196 1.114-.507a1.603 1.603 0 0 0-.082-2.263l-9.472-8.806a1.59 1.59 0 0 0-1.088-.425zm-1.65.066h.01-.01z" fill="#FE6340" data-color="1"></path>
        <path d="M145.273 81.677a.649.649 0 0 1-.442-.174l-6.15-5.718a.649.649 0 1 1 .885-.952l6.15 5.718a.649.649 0 0 1-.443 1.126z" fill="#FE6340" data-color="1"></path>
        <path d="M110.322 91.591a2.897 2.897 0 0 1-2.126-.924 2.905 2.905 0 0 1 .149-4.101l9.473-8.806a2.903 2.903 0 0 1 4.1.149h.001c.525.565.8 1.305.771 2.081s-.355 1.494-.922 2.019l-9.473 8.806a2.88 2.88 0 0 1-1.973.776zm9.47-13.306c-.391 0-.782.141-1.09.428l-9.473 8.806a1.603 1.603 0 0 0-.082 2.263 1.605 1.605 0 0 0 2.263.083l9.473-8.806c.312-.29.491-.685.507-1.114s-.135-.837-.424-1.148a1.596 1.596 0 0 0-1.174-.512z" fill="#FE6340" data-color="1"></path>
        <path d="M118.565 81.677a.652.652 0 0 1-.443-1.126l6.151-5.718a.65.65 0 0 1 .885.952l-6.151 5.718a.649.649 0 0 1-.442.174z" fill="#FE6340" data-color="1"></path>
        <path d="M68.371 183.058a.651.651 0 0 1-.645-.571l-9.116-74.545a.65.65 0 0 1 1.291-.158l9.116 74.545a.65.65 0 0 1-.646.729z" fill="#FE6340" data-color="1"></path>
        <path d="M52.074 115.489H22.547a.65.65 0 1 1 0-1.3h29.526a.65.65 0 0 1 .001 1.3z" fill="#FE6340" data-color="1"></path>
        <path d="M52.074 132.168H17.611a.65.65 0 1 1 0-1.3h34.463a.65.65 0 1 1 0 1.3z" fill="#FE6340" data-color="1"></path>
        <path d="M178.15 138.027h-63.094a.65.65 0 1 1 0-1.3h63.094a.65.65 0 1 1 0 1.3z" fill="#FE6340" data-color="1"></path>
        <path d="M108.603 115.489H94.011a.65.65 0 1 1 0-1.3h14.592a.65.65 0 1 1 0 1.3z" fill="#FE6340" data-color="1"></path>
        <path d="M117.381 115.489h-4.649a.65.65 0 1 1 0-1.3h4.649a.65.65 0 1 1 0 1.3z" fill="#FE6340" data-color="1"></path>
        <path d="M174.954 127.794h-4.649a.65.65 0 1 1 0-1.3h4.649a.65.65 0 1 1 0 1.3z" fill="#FE6340" data-color="1"></path>
        <path d="M161.312 154.974h-4.649a.65.65 0 1 1 0-1.3h4.649a.65.65 0 1 1 0 1.3z" fill="#FE6340" data-color="1"></path>
        <path d="M33.767 124.749h-4.649a.65.65 0 1 1 0-1.3h4.649a.65.65 0 1 1 0 1.3z" fill="#FE6340" data-color="1"></path>
        <path d="M61.241 124.749H39.409a.65.65 0 1 1 0-1.3h21.832a.65.65 0 1 1 0 1.3z" fill="#FE6340" data-color="1"></path>
        <path d="M64.742 153.374h-22.01a.65.65 0 1 1 0-1.3h22.01a.65.65 0 1 1 0 1.3z" fill="#FE6340" data-color="1"></path>
        <path d="M110.301 126.794h-16.29a.65.65 0 1 1 0-1.3h16.29a.65.65 0 1 1 0 1.3z" fill="#FE6340" data-color="1"></path>
        <path d="M152.836 154.974h-34.271a.65.65 0 1 1 0-1.3h34.271a.65.65 0 1 1 0 1.3z" fill="#FE6340" data-color="1"></path>
        <path d="M185.467 113.462h-40.194a.65.65 0 1 1 0-1.3h40.194a.65.65 0 1 1 0 1.3z" fill="#FE6340" data-color="1"></path>
        <path d="M165.37 127.794H135.7a.65.65 0 1 1 0-1.3h29.67a.65.65 0 1 1 0 1.3z" fill="#FE6340" data-color="1"></path>
        <path d="M72.364 120.104a.65.65 0 0 1-.606-.416l-1.788-4.615a.65.65 0 0 1 1.213-.47l1.788 4.615a.65.65 0 0 1-.607.886z" fill="#FE6340" data-color="1"></path>
        <path d="M81.459 139.264a.648.648 0 0 1-.581-.357l-3.576-7.096a.65.65 0 1 1 1.16-.585l3.576 7.096a.65.65 0 0 1-.579.942z" fill="#FE6340" data-color="1"></path>
        <path d="M91.543 161.148a.65.65 0 0 1-.584-.362l-4.872-9.877a.65.65 0 0 1 1.166-.576l4.872 9.877a.65.65 0 0 1-.582.938z" fill="#FE6340" data-color="1"></path>
        <path d="M101.308 180.166a.65.65 0 0 1-.574-.344l-4.929-9.223a.65.65 0 1 1 1.147-.612l4.929 9.223a.65.65 0 0 1-.573.956z" fill="#FE6340" data-color="1"></path>
    </g>
</svg>