<svg preserveAspectRatio="xMidYMid meet" data-bbox="8.734 46.497 179.85 116.831" viewBox="8.734 46.497 179.85 116.831" height="200" width="200" xmlns="http://www.w3.org/2000/svg" data-type="color" role="img" aria-labelledby="comp-jrtawj76-svgtitle"><defs><style>#comp-jrtawj76 svg [data-color="1"] {fill: #FE8340;}</style></defs><title id="comp-jrtawj76-svgtitle">Farmers Illustration</title>
    <g>
        <path d="M150.758 120.699a.43.43 0 0 1-.062-.004l-14.697-2.158a.425.425 0 0 1-.359-.482.431.431 0 0 1 .482-.359l14.468 2.125 5.469-6.256-29.073-5.708a.425.425 0 0 1 .164-.834l29.796 5.85a.425.425 0 0 1 .237.696l-6.107 6.985a.418.418 0 0 1-.318.145z" fill="#FE8340" data-color="1"></path>
        <path d="M133.803 124.334a.426.426 0 0 1-.425-.443l.625-14.237a.425.425 0 0 1 .849.037l-.573 13.048 3.024-3.383a.425.425 0 1 1 .634.567l-3.818 4.271a.426.426 0 0 1-.316.14z" fill="#FE8340" data-color="1"></path>
        <path d="M112.967 126.085a.424.424 0 0 1-.425-.449l.98-17.317c.013-.234.217-.395.448-.4a.426.426 0 0 1 .4.449l-.955 16.863 1.064-.011c.161-3.6 2.449-14.226 2.55-14.695a.434.434 0 0 1 .426-.335.425.425 0 0 1 .409.355l2.411 14.615.765-.008.203-16.46a.425.425 0 0 1 .425-.42h.005a.424.424 0 0 1 .419.43l-.208 16.876a.424.424 0 0 1-.42.42l-1.545.016h-.004a.424.424 0 0 1-.419-.355l-2.101-12.734c-.739 3.599-2.097 10.52-2.074 12.713a.427.427 0 0 1-.42.429l-1.931.02c0-.002-.001-.002-.003-.002z" fill="#FE8340" data-color="1"></path>
        <path d="M143.261 127.313a3.704 3.704 0 0 1-3.706-3.656 3.665 3.665 0 0 1 1.059-2.623 3.687 3.687 0 0 1 2.61-1.107c2.034.017 3.724 1.619 3.745 3.655v.001a3.662 3.662 0 0 1-1.06 2.623 3.687 3.687 0 0 1-2.61 1.107h-.038zm.001-6.537h-.03a2.85 2.85 0 0 0-2.013.854 2.814 2.814 0 0 0-.815 2.019 2.854 2.854 0 0 0 2.856 2.814h.03a2.85 2.85 0 0 0 2.013-.854 2.815 2.815 0 0 0 .816-2.018 2.855 2.855 0 0 0-2.857-2.815z" fill="#FE8340" data-color="1"></path>
        <path d="M122.049 107.915h-.015l-8.885-.294a.423.423 0 0 1-.408-.471c.059-.533 1.527-13.062 7.98-13.531a.413.413 0 0 1 .303.098l2.727 2.28c.096.08.151.197.152.322l.062 6.003 3.034 3.698a.425.425 0 0 1-.025.567l-.764.777a.425.425 0 0 1-.6.006l-4.291-4.186a.428.428 0 0 1-.124-.244l-.832-5.761a.424.424 0 1 1 .841-.121l.812 5.618 3.885 3.79.2-.203-2.886-3.519a.421.421 0 0 1-.096-.266l-.062-5.957-2.44-2.041c-4.986.568-6.649 10.092-6.968 12.306l8.416.278a.426.426 0 0 1-.016.851z" fill="#FE8340" data-color="1"></path>
        <path d="M124.861 108.615a.42.42 0 0 1-.231-.068l-5.324-3.457a.426.426 0 0 1-.183-.261l-1.039-4.515a.425.425 0 0 1 .828-.192l1 4.348 4.889 3.174.192-.195a.425.425 0 1 1 .606.596l-.436.443a.418.418 0 0 1-.302.127z" fill="#FE8340" data-color="1"></path>
        <path d="M124.187 94.972c-.517 0-.892-.179-.916-.19-2.629-1.276-1.474-4.96-1.423-5.116a.425.425 0 1 1 .809.261c-.01.031-.979 3.138.986 4.091.02.01.542.246 1.102-.021.577-.278 1.025-1.025 1.298-2.161a.425.425 0 1 1 .826.2c-.341 1.422-.938 2.343-1.773 2.735a2.128 2.128 0 0 1-.909.201z" fill="#FE8340" data-color="1"></path>
        <path d="M129.621 93.223a.427.427 0 0 1-.209-.055l-9.323-5.289a.427.427 0 0 1-.16-.58.428.428 0 0 1 .579-.16l9.323 5.289a.425.425 0 1 1-.21.795z" fill="#FE8340" data-color="1"></path>
        <path d="M127.32 90.595a.424.424 0 0 1-.424-.411l-.057-1.764-1.576-1.229-2.063 1.054a.427.427 0 0 1-.387-.758l2.305-1.177a.423.423 0 0 1 .455.044l1.947 1.519c.1.077.16.195.164.321l.063 1.963a.425.425 0 0 1-.411.438h-.016z" fill="#FE8340" data-color="1"></path>
        <path d="M149.969 119.169a.425.425 0 0 1-.33-.692l3.432-4.266a.425.425 0 0 1 .662.534l-3.432 4.266a.425.425 0 0 1-.332.158z" fill="#FE8340" data-color="1"></path>
        <path d="M150.324 116.088a.425.425 0 0 1-.333-.688l1.524-1.938a.425.425 0 1 1 .668.526l-1.524 1.938a.429.429 0 0 1-.335.162z" fill="#FE8340" data-color="1"></path>
        <path d="M136.688 68.638c-3.463 0-6.28-2.807-6.28-6.257 0-3.449 2.817-6.256 6.28-6.256s6.28 2.807 6.28 6.256c0 3.45-2.817 6.257-6.28 6.257zm0-11.663c-2.994 0-5.431 2.426-5.431 5.406 0 2.981 2.437 5.407 5.431 5.407s5.431-2.426 5.431-5.407-2.437-5.406-5.431-5.406z" fill="#FE8340" data-color="1"></path>
        <path d="M130.087 76.59a.425.425 0 0 1-.374-.625l3.407-6.361a.425.425 0 0 1 .749.4l-3.407 6.361a.424.424 0 0 1-.375.225z" fill="#FE8340" data-color="1"></path>
        <path d="M128.384 62.17h-.005l-16.608-.212a.424.424 0 0 1-.419-.431c.003-.234.176-.452.43-.419l16.608.212a.424.424 0 0 1-.006.85z" fill="#FE8340" data-color="1"></path>
        <path d="M110.605 78.106a.425.425 0 0 1-.227-.784l18.205-11.483a.425.425 0 1 1 .453.719l-18.205 11.483a.414.414 0 0 1-.226.065z" fill="#FE8340" data-color="1"></path>
        <path d="M131.366 56.021a.422.422 0 0 1-.352-.186l-5.914-8.692a.426.426 0 0 1 .703-.479l5.914 8.692a.426.426 0 0 1-.351.665z" fill="#FE8340" data-color="1"></path>
        <path d="M142.633 86.065a.425.425 0 0 1-.412-.321l-3.816-15.201a.425.425 0 1 1 .825-.207l3.816 15.201a.425.425 0 0 1-.413.528z" fill="#FE8340" data-color="1"></path>
        <path d="M149.464 76.59a.422.422 0 0 1-.309-.133l-7.027-7.422a.424.424 0 1 1 .618-.584l7.027 7.422a.424.424 0 0 1-.309.717z" fill="#FE8340" data-color="1"></path>
        <path d="M136.262 54.111a.424.424 0 0 1-.42-.364l-.426-2.969a.425.425 0 0 1 .841-.121l.426 2.969a.425.425 0 0 1-.421.485z" fill="#FE8340" data-color="1"></path>
        <path d="M143.928 59.413a.425.425 0 0 1-.138-.827l6.813-2.333a.425.425 0 1 1 .276.805l-6.813 2.333a.447.447 0 0 1-.138.022z" fill="#FE8340" data-color="1"></path>
        <path d="M128.916 58.883a.425.425 0 0 1-.197-.049l-11.285-5.938a.424.424 0 1 1 .396-.752l11.285 5.938a.424.424 0 0 1-.199.801z" fill="#FE8340" data-color="1"></path>
        <path d="M137.221 66.729a.425.425 0 1 1 0-.85 2.98 2.98 0 0 0 2.982-2.969.425.425 0 0 1 .85 0 3.83 3.83 0 0 1-3.832 3.819z" fill="#FE8340" data-color="1"></path>
        <path d="M188.159 126.869h-179a.425.425 0 1 1 0-.85h179a.425.425 0 1 1 0 .85z" fill="#FE8340" data-color="1"></path>
        <path d="M66.289 134.523H24.131a.425.425 0 1 1 0-.85h42.158a.425.425 0 1 1 0 .85z" fill="#FE8340" data-color="1"></path>
        <path d="M59.591 143.133a.424.424 0 0 1-.002-.85l31.446-.136h.002a.424.424 0 0 1 .002.85l-31.446.136h-.002z" fill="#FE8340" data-color="1"></path>
        <path d="M168.209 132.953h-78.28a.425.425 0 1 1 0-.85h78.28a.425.425 0 1 1 0 .85z" fill="#FE8340" data-color="1"></path>
        <path d="M74.085 134.585h-5.194a.425.425 0 1 1 0-.85h5.194a.425.425 0 1 1 0 .85z" fill="#FE8340" data-color="1"></path>
        <path d="M21.598 134.312h-2.46a.425.425 0 1 1 0-.85h2.46a.425.425 0 1 1 0 .85z" fill="#FE8340" data-color="1"></path>
        <path d="M58.581 151.682H53.66a.425.425 0 1 1 0-.85h4.921a.425.425 0 1 1 0 .85z" fill="#FE8340" data-color="1"></path>
        <path d="M77.092 134.585h-.82a.425.425 0 1 1 0-.85h.82a.425.425 0 1 1 0 .85z" fill="#FE8340" data-color="1"></path>
        <path d="M177.102 132.778h-5.194a.425.425 0 1 1 0-.85h5.194a.425.425 0 1 1 0 .85z" fill="#FE8340" data-color="1"></path>
        <path d="M180.108 132.778h-.82a.425.425 0 1 1 0-.85h.82a.425.425 0 1 1 0 .85z" fill="#FE8340" data-color="1"></path>
        <path d="M16.677 134.312h-1.64a.425.425 0 1 1 0-.85h1.64a.425.425 0 1 1 0 .85z" fill="#FE8340" data-color="1"></path>
        <path d="M61.998 151.545h-1.64a.425.425 0 1 1 0-.85h1.64a.425.425 0 1 1 0 .85z" fill="#FE8340" data-color="1"></path>
        <path d="M39.542 141.267c-.527 0-1.36-.12-1.899-.79-.708-.879-.634-2.372.22-4.437a.423.423 0 0 1 .534-.238c1.042.272 2.782.907 3.302 2.237.295.755.153 1.592-.423 2.486a.425.425 0 0 1-.714-.459c.42-.653.536-1.231.346-1.718-.261-.668-1.128-1.256-2.398-1.634-.74 1.938-.529 2.823-.207 3.227.502.628 1.57.454 1.582.451a.428.428 0 0 1 .492.346.423.423 0 0 1-.343.491c-.023.004-.215.038-.492.038z" fill="#FE8340" data-color="1"></path>
        <path d="M44.078 141.73c-.199 0-.408-.017-.627-.048a.425.425 0 0 1 .122-.841c.774.117 1.354-.021 1.721-.399.5-.513.679-1.539.502-2.842-2.086.128-2.809.688-3.043 1.149-.362.713.234 1.604.241 1.612a.425.425 0 0 1-.7.483c-.037-.054-.888-1.308-.301-2.474.508-1.011 1.905-1.562 4.152-1.638.236.004.394.14.432.347l.006.042c.18 1.056.316 2.892-.679 3.914-.452.462-1.064.694-1.826.695z" fill="#FE8340" data-color="1"></path>
        <path d="M41.679 144.113a.425.425 0 0 1-.397-.272l-1.455-3.802a.425.425 0 0 1 .794-.305l1.05 2.746c.424-.957 1.212-2.313 2.507-3.135a.426.426 0 0 1 .455.719c-1.832 1.16-2.537 3.709-2.544 3.734a.423.423 0 0 1-.389.313c-.007.002-.014.002-.021.002z" fill="#FE8340" data-color="1"></path>
        <path d="M73.879 156.879c-.527 0-1.36-.12-1.9-.79-.708-.88-.635-2.373.22-4.438a.428.428 0 0 1 .535-.238c1.044.274 2.783.91 3.301 2.238.295.755.152 1.592-.423 2.486a.424.424 0 1 1-.714-.459c.419-.653.536-1.231.346-1.718-.261-.667-1.127-1.255-2.398-1.635-.74 1.938-.529 2.824-.207 3.227.504.631 1.572.456 1.582.452a.43.43 0 0 1 .492.346.423.423 0 0 1-.343.491 2.807 2.807 0 0 1-.491.038z" fill="#FE8340" data-color="1"></path>
        <path d="M78.414 157.342c-.199 0-.409-.017-.628-.048a.425.425 0 0 1 .122-.841c.774.116 1.354-.021 1.722-.398.5-.514.679-1.539.502-2.842-2.086.128-2.809.688-3.043 1.149-.362.713.234 1.604.241 1.612a.425.425 0 0 1-.7.483c-.037-.054-.888-1.308-.301-2.474.508-1.011 1.905-1.562 4.152-1.638.232.005.393.14.432.347l.006.042c.18 1.056.316 2.892-.679 3.913-.452.461-1.064.695-1.826.695z" fill="#FE8340" data-color="1"></path>
        <path d="M75.931 163.012a.425.425 0 0 1-.417-.344l-1.37-7.088a.425.425 0 0 1 .835-.162l.943 4.882c.439-1.925 1.256-4.493 2.593-5.342a.426.426 0 0 1 .455.719c-1.503.952-2.399 5.353-2.618 6.967a.425.425 0 0 1-.409.368h-.012z" fill="#FE8340" data-color="1"></path>
        <path d="M85.356 140.369c-.199 0-.408-.017-.627-.048a.425.425 0 0 1 .122-.841c.777.117 1.354-.021 1.721-.399.5-.512.678-1.538.502-2.842-2.086.128-2.809.688-3.043 1.149-.362.713.234 1.604.241 1.612a.426.426 0 0 1-.7.483c-.037-.054-.888-1.308-.302-2.474.508-1.011 1.906-1.562 4.153-1.638a.41.41 0 0 1 .432.346l.006.044c.179 1.057.315 2.893-.68 3.913-.451.462-1.062.694-1.825.695z" fill="#FE8340" data-color="1"></path>
        <path d="M82.958 142.753a.426.426 0 0 1-.411-.536c.032-.117.795-2.892 2.911-4.233a.426.426 0 0 1 .455.719c-1.839 1.165-2.538 3.709-2.544 3.735a.427.427 0 0 1-.411.315z" fill="#FE8340" data-color="1"></path>
        <path d="M53.456 149.024c-.558 0-.933-.224-1.164-.437-.927-.855-.917-2.713-.747-4.12h.004a.416.416 0 0 1 .445-.44c1.444.069 2.418.513 2.894 1.318.704 1.192-.009 2.677-.04 2.739a.425.425 0 0 1-.763-.374c.005-.011.542-1.141.069-1.936-.283-.476-.888-.767-1.802-.868-.14 1.495.048 2.625.516 3.056.214.199.508.255.898.178a.425.425 0 0 1 .169.832 2.265 2.265 0 0 1-.479.052z" fill="#FE8340" data-color="1"></path>
        <path d="M55.151 151.409a.425.425 0 0 1-.417-.346c-.005-.025-.507-2.592-1.8-3.745a.425.425 0 0 1 .566-.635c1.509 1.348 2.046 4.104 2.068 4.222a.424.424 0 0 1-.417.504z" fill="#FE8340" data-color="1"></path>
        <path d="M53.748 132.255c-.487 0-.816-.196-1.019-.384-.797-.735-.792-2.312-.646-3.505h.003c0-.022.001-.045.004-.067.032-.216.228-.359.44-.362 1.233.06 2.067.441 2.478 1.137.608 1.029-.004 2.303-.031 2.356a.426.426 0 0 1-.496.221.426.426 0 0 1-.315.56c-.151.03-.29.044-.418.044zm-.858-3.436c-.103 1.193.047 2.088.416 2.428.104.095.289.213.69.131a.412.412 0 0 1 .201.007.426.426 0 0 1 .017-.328c.004-.01.437-.922.061-1.554-.219-.366-.684-.595-1.385-.684z" fill="#FE8340" data-color="1"></path>
        <path d="M55.167 134.249a.425.425 0 0 1-.417-.346c-.004-.021-.42-2.144-1.483-3.095a.425.425 0 1 1 .566-.633c1.279 1.143 1.733 3.471 1.752 3.569a.424.424 0 0 1-.418.505z" fill="#FE8340" data-color="1"></path>
        <path d="M155.313 155.982H87.849a.425.425 0 1 1 0-.85h67.464a.425.425 0 1 1 0 .85z" fill="#FE8340" data-color="1"></path>
        <path d="M102.413 163.328H71.894a.425.425 0 1 1 0-.85h30.519a.425.425 0 1 1 0 .85z" fill="#FE8340" data-color="1"></path>
        <path d="M107.69 140.595a.425.425 0 0 1-.425-.425c0-1.128-.922-2.045-2.055-2.045s-2.055.917-2.055 2.045a.425.425 0 0 1-.85 0c0-1.596 1.303-2.895 2.904-2.895s2.904 1.299 2.904 2.895a.422.422 0 0 1-.423.425z" fill="#FE8340" data-color="1"></path>
        <path d="M113.085 145.703a.425.425 0 0 1-.425-.425 2.052 2.052 0 0 0-2.055-2.045 2.052 2.052 0 0 0-2.055 2.045.425.425 0 0 1-.85 0 2.903 2.903 0 0 1 2.904-2.895 2.903 2.903 0 0 1 2.905 2.895.423.423 0 0 1-.424.425z" fill="#FE8340" data-color="1"></path>
        <path d="M123.208 145.703a.425.425 0 0 1-.425-.425 2.052 2.052 0 0 0-2.055-2.045 2.052 2.052 0 0 0-2.055 2.045.425.425 0 0 1-.85 0 2.903 2.903 0 0 1 2.905-2.895 2.903 2.903 0 0 1 2.904 2.895.423.423 0 0 1-.424.425z" fill="#FE8340" data-color="1"></path>
        <path d="M133.331 145.703a.425.425 0 0 1-.425-.425 2.052 2.052 0 0 0-2.055-2.045 2.052 2.052 0 0 0-2.055 2.045.425.425 0 0 1-.85 0 2.903 2.903 0 0 1 2.905-2.895 2.903 2.903 0 0 1 2.904 2.895.423.423 0 0 1-.424.425z" fill="#FE8340" data-color="1"></path>
        <path d="M143.455 145.703a.425.425 0 0 1-.425-.425 2.052 2.052 0 0 0-2.055-2.045 2.052 2.052 0 0 0-2.055 2.045.425.425 0 0 1-.85 0 2.903 2.903 0 0 1 2.904-2.895 2.903 2.903 0 0 1 2.905 2.895.423.423 0 0 1-.424.425z" fill="#FE8340" data-color="1"></path>
        <path d="M153.579 145.703a.425.425 0 0 1-.425-.425 2.052 2.052 0 0 0-2.055-2.045 2.052 2.052 0 0 0-2.055 2.045.425.425 0 0 1-.85 0 2.903 2.903 0 0 1 2.904-2.895 2.903 2.903 0 0 1 2.905 2.895c0 .235-.19.425-.424.425z" fill="#FE8340" data-color="1"></path>
        <path d="M117.929 140.595a.425.425 0 0 1-.425-.425 2.052 2.052 0 0 0-2.055-2.045 2.052 2.052 0 0 0-2.055 2.045.425.425 0 0 1-.85 0 2.903 2.903 0 0 1 2.905-2.895 2.903 2.903 0 0 1 2.904 2.895.424.424 0 0 1-.424.425z" fill="#FE8340" data-color="1"></path>
        <path d="M128.167 140.595a.425.425 0 0 1-.425-.425 2.052 2.052 0 0 0-2.055-2.045 2.052 2.052 0 0 0-2.055 2.045.425.425 0 0 1-.85 0 2.903 2.903 0 0 1 2.905-2.895 2.903 2.903 0 0 1 2.904 2.895.424.424 0 0 1-.424.425z" fill="#FE8340" data-color="1"></path>
        <path d="M138.406 140.595a.425.425 0 0 1-.425-.425 2.052 2.052 0 0 0-2.055-2.045 2.052 2.052 0 0 0-2.055 2.045.425.425 0 0 1-.85 0 2.903 2.903 0 0 1 2.905-2.895 2.903 2.903 0 0 1 2.904 2.895.424.424 0 0 1-.424.425z" fill="#FE8340" data-color="1"></path>
        <path d="M148.645 140.595a.425.425 0 0 1-.425-.425 2.052 2.052 0 0 0-2.055-2.045 2.052 2.052 0 0 0-2.055 2.045.425.425 0 0 1-.85 0 2.903 2.903 0 0 1 2.905-2.895 2.903 2.903 0 0 1 2.904 2.895.424.424 0 0 1-.424.425z" fill="#FE8340" data-color="1"></path>
        <path d="M158.884 140.595a.425.425 0 0 1-.425-.425 2.052 2.052 0 0 0-2.055-2.045 2.052 2.052 0 0 0-2.055 2.045.425.425 0 0 1-.85 0 2.903 2.903 0 0 1 2.905-2.895 2.903 2.903 0 0 1 2.904 2.895.424.424 0 0 1-.424.425z" fill="#FE8340" data-color="1"></path>
        <path d="M107.69 150.091a.425.425 0 0 1-.425-.425c0-1.128-.922-2.045-2.055-2.045s-2.055.917-2.055 2.045a.425.425 0 0 1-.85 0c0-1.596 1.303-2.895 2.904-2.895s2.904 1.299 2.904 2.895a.422.422 0 0 1-.423.425z" fill="#FE8340" data-color="1"></path>
        <path d="M117.929 150.091a.425.425 0 0 1-.425-.425 2.052 2.052 0 0 0-2.055-2.045 2.052 2.052 0 0 0-2.055 2.045.425.425 0 0 1-.85 0 2.903 2.903 0 0 1 2.905-2.895 2.903 2.903 0 0 1 2.904 2.895.424.424 0 0 1-.424.425z" fill="#FE8340" data-color="1"></path>
        <path d="M128.167 150.091a.425.425 0 0 1-.425-.425 2.052 2.052 0 0 0-2.055-2.045 2.052 2.052 0 0 0-2.055 2.045.425.425 0 0 1-.85 0 2.903 2.903 0 0 1 2.905-2.895 2.903 2.903 0 0 1 2.904 2.895.424.424 0 0 1-.424.425z" fill="#FE8340" data-color="1"></path>
        <path d="M138.406 150.091a.425.425 0 0 1-.425-.425 2.052 2.052 0 0 0-2.055-2.045 2.052 2.052 0 0 0-2.055 2.045.425.425 0 0 1-.85 0 2.903 2.903 0 0 1 2.905-2.895 2.903 2.903 0 0 1 2.904 2.895.424.424 0 0 1-.424.425z" fill="#FE8340" data-color="1"></path>
        <path d="M148.645 150.091a.425.425 0 0 1-.425-.425 2.052 2.052 0 0 0-2.055-2.045 2.052 2.052 0 0 0-2.055 2.045.425.425 0 0 1-.85 0 2.903 2.903 0 0 1 2.905-2.895 2.903 2.903 0 0 1 2.904 2.895.424.424 0 0 1-.424.425z" fill="#FE8340" data-color="1"></path>
        <path d="M158.884 150.091a.425.425 0 0 1-.425-.425 2.052 2.052 0 0 0-2.055-2.045 2.052 2.052 0 0 0-2.055 2.045.425.425 0 0 1-.85 0 2.903 2.903 0 0 1 2.905-2.895 2.903 2.903 0 0 1 2.904 2.895.424.424 0 0 1-.424.425z" fill="#FE8340" data-color="1"></path>
        <path d="M31.518 126.397a.425.425 0 0 1-.425-.425v-24.3a.425.425 0 0 1 .85 0v24.3c0 .235-.19.425-.425.425z" fill="#FE8340" data-color="1"></path>
        <path d="M31.292 108.854a3.552 3.552 0 0 1-3.554-3.541.425.425 0 0 1 .85 0 2.7 2.7 0 0 0 2.705 2.691.425.425 0 1 1-.001.85z" fill="#FE8340" data-color="1"></path>
        <path d="M31.292 114.076a3.552 3.552 0 0 1-3.554-3.541.425.425 0 0 1 .85 0 2.7 2.7 0 0 0 2.705 2.691.425.425 0 1 1-.001.85z" fill="#FE8340" data-color="1"></path>
        <path d="M31.292 118.308a3.552 3.552 0 0 1-3.554-3.542.425.425 0 0 1 .85 0 2.702 2.702 0 0 0 2.705 2.692.425.425 0 1 1-.001.85z" fill="#FE8340" data-color="1"></path>
        <path d="M31.626 106.281a.425.425 0 1 1 0-.85 2.701 2.701 0 0 0 2.705-2.691.425.425 0 0 1 .85 0 3.553 3.553 0 0 1-3.555 3.541z" fill="#FE8340" data-color="1"></path>
        <path d="M31.626 111.52a.425.425 0 1 1 0-.85 2.701 2.701 0 0 0 2.705-2.691.425.425 0 0 1 .85 0 3.553 3.553 0 0 1-3.555 3.541z" fill="#FE8340" data-color="1"></path>
        <path d="M31.626 116.312a.425.425 0 1 1 0-.85 2.701 2.701 0 0 0 2.705-2.691.425.425 0 0 1 .85 0 3.553 3.553 0 0 1-3.555 3.541z" fill="#FE8340" data-color="1"></path>
        <path d="M174.564 126.397a.425.425 0 0 1-.425-.425v-20.116a.425.425 0 0 1 .85 0v20.116c0 .235-.19.425-.425.425z" fill="#FE8340" data-color="1"></path>
        <path d="M174.337 111.875c-1.96 0-3.554-1.348-3.554-3.005a.425.425 0 0 1 .85 0c0 1.188 1.213 2.155 2.705 2.155a.425.425 0 1 1-.001.85z" fill="#FE8340" data-color="1"></path>
        <path d="M174.337 116.197c-1.96 0-3.554-1.348-3.554-3.004a.425.425 0 0 1 .85 0c0 1.188 1.213 2.154 2.705 2.154a.425.425 0 1 1-.001.85z" fill="#FE8340" data-color="1"></path>
        <path d="M174.337 119.7c-1.96 0-3.554-1.348-3.554-3.005a.425.425 0 0 1 .85 0c0 1.188 1.213 2.155 2.705 2.155a.425.425 0 1 1-.001.85z" fill="#FE8340" data-color="1"></path>
        <path d="M174.671 109.745a.425.425 0 1 1 0-.85c1.491 0 2.705-.967 2.705-2.155a.425.425 0 0 1 .85 0c0 1.657-1.595 3.005-3.555 3.005z" fill="#FE8340" data-color="1"></path>
        <path d="M174.671 114.081a.425.425 0 1 1 0-.85c1.491 0 2.705-.967 2.705-2.154a.425.425 0 0 1 .85 0c0 1.656-1.595 3.004-3.555 3.004z" fill="#FE8340" data-color="1"></path>
        <path d="M174.671 118.049a.425.425 0 1 1 0-.85c1.491 0 2.705-.967 2.705-2.155a.425.425 0 0 1 .85 0c0 1.657-1.595 3.005-3.555 3.005z" fill="#FE8340" data-color="1"></path>
        <path d="M164.286 127.507a.425.425 0 0 1-.425-.425V71.219a.425.425 0 0 1 .85 0v55.863c0 .234-.19.425-.425.425z" fill="#FE8340" data-color="1"></path>
        <path d="M161.841 90.38a.448.448 0 0 1-.148-.026c-.196-.073-4.819-1.853-6.182-6.97-1.418-5.327 1.234-12.093 7.88-20.108l.022-.03a.426.426 0 0 1 .711.049l.153.176c3.006 3.438 7.965 10.242 7.405 17.193-.29 3.593-2.038 6.74-5.196 9.354a.426.426 0 0 1-.542-.655c2.975-2.462 4.621-5.412 4.891-8.768.528-6.549-4.149-13.049-7.077-16.427-6.25 7.637-8.749 14.026-7.426 18.997 1.251 4.697 5.613 6.375 5.657 6.392a.425.425 0 0 1-.148.823z" fill="#FE8340" data-color="1"></path>
        <path d="M161.567 84.759a.416.416 0 0 1-.219-.062l-2.187-1.322a.424.424 0 1 1 .439-.727l2.187 1.322a.424.424 0 0 1 .144.583.423.423 0 0 1-.364.206z" fill="#FE8340" data-color="1"></path>
        <path d="M164.286 80.064a.43.43 0 0 1-.245-.077l-4.906-3.462a.426.426 0 0 1 .49-.696l4.906 3.462a.426.426 0 0 1-.245.773z" fill="#FE8340" data-color="1"></path>
        <path d="M166.214 75.28a.425.425 0 0 1-.361-.648l.82-1.322a.425.425 0 0 1 .722.447l-.82 1.322a.422.422 0 0 1-.361.201z" fill="#FE8340" data-color="1"></path>
        <path d="M164.286 86.106a.426.426 0 0 1-.341-.679l4.115-5.536a.426.426 0 0 1 .683.508l-4.115 5.536a.425.425 0 0 1-.342.171z" fill="#FE8340" data-color="1"></path>
        <path d="M162.386 73.112a.415.415 0 0 1-.235-.071l-1.065-.709a.425.425 0 0 1 .47-.707l1.065.709a.425.425 0 0 1-.235.778z" fill="#FE8340" data-color="1"></path>
        <path d="M160.473 80.805a.43.43 0 0 1-.187-.043l-2.81-1.382a.426.426 0 0 1-.194-.569.428.428 0 0 1 .569-.194l2.81 1.382a.425.425 0 1 1-.188.806z" fill="#FE8340" data-color="1"></path>
        <path d="M167.203 77.967a.424.424 0 0 1-.286-.74l1.852-1.681a.425.425 0 1 1 .572.629l-1.852 1.681a.42.42 0 0 1-.286.111z" fill="#FE8340" data-color="1"></path>
        <path d="M164.286 88.944a.43.43 0 0 1-.177-.038l-2.687-1.232a.425.425 0 0 1 .354-.773l2.687 1.232a.425.425 0 0 1-.177.811z" fill="#FE8340" data-color="1"></path>
        <path d="M19.723 126.397a.425.425 0 0 1-.425-.425v-31.93a.425.425 0 0 1 .85 0v31.931a.426.426 0 0 1-.425.424z" fill="#FE8340" data-color="1"></path>
        <path d="M19.425 103.345c-2.501 0-4.537-2.027-4.537-4.52a.425.425 0 0 1 .85 0c0 2.023 1.654 3.67 3.687 3.67a.425.425 0 1 1 0 .85z" fill="#FE8340" data-color="1"></path>
        <path d="M19.425 110.207c-2.501 0-4.537-2.027-4.537-4.52a.425.425 0 0 1 .85 0c0 2.023 1.654 3.67 3.687 3.67a.425.425 0 1 1 0 .85z" fill="#FE8340" data-color="1"></path>
        <path d="M19.425 115.768c-2.501 0-4.537-2.027-4.537-4.521a.425.425 0 0 1 .85 0c0 2.024 1.654 3.671 3.687 3.671a.425.425 0 1 1 0 .85z" fill="#FE8340" data-color="1"></path>
        <path d="M19.864 99.965a.425.425 0 1 1 0-.85c2.033 0 3.687-1.646 3.687-3.67a.425.425 0 0 1 .85 0c-.001 2.493-2.036 4.52-4.537 4.52z" fill="#FE8340" data-color="1"></path>
        <path d="M19.864 106.848a.425.425 0 1 1 0-.85c2.033 0 3.687-1.646 3.687-3.67a.425.425 0 0 1 .85 0c-.001 2.492-2.036 4.52-4.537 4.52z" fill="#FE8340" data-color="1"></path>
        <path d="M19.864 113.145a.425.425 0 1 1 0-.85c2.033 0 3.687-1.646 3.687-3.67a.425.425 0 0 1 .85 0c-.001 2.492-2.036 4.52-4.537 4.52z" fill="#FE8340" data-color="1"></path>
        <path d="M42.151 126.397a.425.425 0 0 1-.423-.468l4.933-48.637a.432.432 0 0 1 .466-.38.425.425 0 0 1 .38.466l-4.933 48.637a.426.426 0 0 1-.423.382z" fill="#FE8340" data-color="1"></path>
        <path d="M57.322 126.397a.425.425 0 0 1-.422-.382l-4.934-48.637a.426.426 0 0 1 .846-.086l4.934 48.637a.426.426 0 0 1-.38.466l-.044.002z" fill="#FE8340" data-color="1"></path>
        <path d="M57.084 124.051a.437.437 0 0 1-.197-.048l-13.956-7.302a.427.427 0 0 1-.037-.731l11.878-7.86-10.409-7.729a.426.426 0 0 1-.039-.649l8.858-8.372-7.126-6.386a.425.425 0 0 1 .567-.633l7.47 6.693a.424.424 0 0 1 .008.625L45.277 100l10.489 7.789a.424.424 0 0 1-.019.696l-11.783 7.797 13.318 6.968a.425.425 0 0 1-.198.801z" fill="#FE8340" data-color="1"></path>
        <path d="M49.799 77.896c-3.912 0-7.095-3.171-7.095-7.068s3.183-7.067 7.095-7.067 7.095 3.17 7.095 7.067-3.183 7.068-7.095 7.068zm0-13.287c-3.443 0-6.245 2.789-6.245 6.218s2.802 6.219 6.245 6.219 6.245-2.79 6.245-6.219-2.802-6.218-6.245-6.218z" fill="#FE8340" data-color="1"></path>
        <path d="M37.639 64.455c-.65 0-1.301-.234-1.813-.709l-9.43-8.731a2.627 2.627 0 0 1-.847-1.851 2.63 2.63 0 0 1 .709-1.905 2.676 2.676 0 0 1 3.767-.137l9.43 8.73a2.63 2.63 0 0 1 .847 1.85 2.632 2.632 0 0 1-.71 1.907 2.664 2.664 0 0 1-1.953.846zM28.21 51.262c-.488 0-.974.194-1.332.577a1.786 1.786 0 0 0-.481 1.294c.018.484.222.932.575 1.259l9.43 8.731c.735.68 1.886.638 2.568-.094.328-.352.499-.812.481-1.296s-.222-.931-.575-1.258l-9.43-8.73a1.81 1.81 0 0 0-1.236-.483z" fill="#FE8340" data-color="1"></path>
        <path d="M42.541 66.763a.422.422 0 0 1-.289-.113l-6.124-5.67a.425.425 0 1 1 .578-.623l6.124 5.67a.425.425 0 0 1-.289.736z" fill="#FE8340" data-color="1"></path>
        <path d="M61.786 64.455a2.663 2.663 0 0 1-1.953-.846 2.628 2.628 0 0 1-.709-1.906 2.637 2.637 0 0 1 .847-1.851l9.43-8.73a2.676 2.676 0 0 1 3.767.137c.483.518.736 1.194.71 1.905a2.637 2.637 0 0 1-.847 1.851l-9.43 8.731a2.666 2.666 0 0 1-1.815.709zm9.428-13.193c-.443 0-.887.16-1.237.483l-9.43 8.73a1.79 1.79 0 0 0-.575 1.258 1.79 1.79 0 0 0 .481 1.296 1.826 1.826 0 0 0 2.568.094l9.43-8.731c.353-.327.557-.774.575-1.258a1.787 1.787 0 0 0-.481-1.295 1.815 1.815 0 0 0-1.331-.577z" fill="#FE8340" data-color="1"></path>
        <path d="M56.883 66.763a.426.426 0 0 1-.289-.737l6.124-5.67a.426.426 0 0 1 .601.022.426.426 0 0 1-.023.601l-6.124 5.67a.418.418 0 0 1-.289.114z" fill="#FE8340" data-color="1"></path>
        <path d="M71.213 91.175c-.65 0-1.301-.234-1.813-.709l-9.43-8.73a2.631 2.631 0 0 1-.847-1.851 2.634 2.634 0 0 1 .709-1.906 2.677 2.677 0 0 1 3.767-.137l9.43 8.731c.521.481.821 1.139.847 1.851a2.631 2.631 0 0 1-.71 1.905 2.66 2.66 0 0 1-1.953.846zm-9.428-13.194c-.488 0-.974.194-1.332.577a1.79 1.79 0 0 0-.481 1.296c.018.483.222.931.575 1.258l9.43 8.73c.735.68 1.886.638 2.568-.094.328-.352.499-.811.481-1.295a1.795 1.795 0 0 0-.575-1.258l-9.43-8.731a1.819 1.819 0 0 0-1.236-.483z" fill="#FE8340" data-color="1"></path>
        <path d="M63.007 81.345a.422.422 0 0 1-.289-.113l-6.124-5.67a.425.425 0 1 1 .578-.623l6.124 5.67a.425.425 0 0 1-.289.736z" fill="#FE8340" data-color="1"></path>
        <path d="M28.211 91.175a2.663 2.663 0 0 1-1.953-.846 2.632 2.632 0 0 1-.709-1.905 2.633 2.633 0 0 1 .847-1.851l9.43-8.731a2.676 2.676 0 0 1 3.767.137c.484.519.736 1.195.71 1.907a2.637 2.637 0 0 1-.847 1.85l-9.43 8.73a2.669 2.669 0 0 1-1.815.709zm9.428-13.194c-.443 0-.887.16-1.237.483l-9.43 8.731a1.79 1.79 0 0 0-.575 1.259c-.018.483.153.942.481 1.294a1.826 1.826 0 0 0 2.568.094l9.43-8.73c.353-.327.557-.773.575-1.258s-.153-.944-.481-1.296a1.82 1.82 0 0 0-1.331-.577z" fill="#FE8340" data-color="1"></path>
        <path d="M36.417 81.345a.426.426 0 0 1-.289-.737l6.124-5.67a.427.427 0 0 1 .601.022.426.426 0 0 1-.023.601l-6.124 5.67a.418.418 0 0 1-.289.114z" fill="#FE8340" data-color="1"></path>
        <path d="M97.794 115.556c-1.787 0-3.58-.027-3.878-.134-.218-.077-.357-.335-.284-.555.048-.404.523-10.768.827-17.619l.035-4.841a.425.425 0 0 1 .351-.416l.867-.152a.43.43 0 0 1 .443.209l2.398 4.211 2.396-4.321a.418.418 0 0 1 .465-.208l1.179.267a.425.425 0 0 1 .331.426l-.125 4.716-.043-.002c.07.413.117 1.213.206 2.757l.865 15.008a.41.41 0 0 1-.014.247c-.126.336-.143.379-4.898.405l-1.121.002zm-3.31-.906c1.451.102 6.992.053 8.474-.027-.149-2.586-.984-17.095-1.008-17.46-.001-.016-.002-.032-.001-.049l.116-4.366-.527-.12-2.608 4.704c-.075.136-.233.173-.372.219a.423.423 0 0 1-.369-.215l-2.624-4.607-.224.039-.033 4.502c-.559 12.605-.751 16.282-.824 17.38z" fill="#FE8340" data-color="1"></path>
        <path d="M97.005 103.981c-1.239 0-2.239-.005-2.433-.018a.424.424 0 0 1-.396-.451c.016-.235.215-.426.452-.396.439.027 6.006.009 8.115-.001h.002a.424.424 0 0 1 .002.85c-.203.001-3.399.016-5.742.016z" fill="#FE8340" data-color="1"></path>
        <path d="M92.622 105.334a.417.417 0 0 1-.125-.019l-1.35-.417a.424.424 0 0 1-.292-.485l1.35-7.163.737-4.554a.424.424 0 0 1 .325-.346l1.557-.354a.425.425 0 0 1 .189.828l-1.278.291-.693 4.282-1.282 6.801.608.188 2.03-5.291a.425.425 0 0 1 .794.305l-2.173 5.662a.428.428 0 0 1-.397.272z" fill="#FE8340" data-color="1"></path>
        <path d="M104.918 105.334a.426.426 0 0 1-.391-.257l-2.419-5.635a.425.425 0 0 1 .781-.336l2.26 5.265.413-.153-2.051-11.089-1.125-.309a.423.423 0 0 1-.297-.522.428.428 0 0 1 .522-.298l1.384.38a.427.427 0 0 1 .306.335l.814 4.539 1.349 7.159a.425.425 0 0 1-.27.478l-1.129.417a.418.418 0 0 1-.147.026z" fill="#FE8340" data-color="1"></path>
        <path d="M98.438 91.719c-1.673 0-3.033-1.355-3.033-3.022s1.36-3.022 3.033-3.022c1.672 0 3.033 1.355 3.033 3.022s-1.361 3.022-3.033 3.022zm0-5.196c-1.204 0-2.184.975-2.184 2.173s.979 2.173 2.184 2.173c1.204 0 2.183-.975 2.183-2.173s-.979-2.173-2.183-2.173z" fill="#FE8340" data-color="1"></path>
        <path d="M78.88 98.418c-1.672 0-3.033-1.355-3.033-3.022s1.36-3.022 3.033-3.022c1.673 0 3.033 1.355 3.033 3.022s-1.36 3.022-3.033 3.022zm0-5.195c-1.204 0-2.183.975-2.183 2.173s.979 2.173 2.183 2.173c1.204 0 2.184-.975 2.184-2.173s-.98-2.173-2.184-2.173z" fill="#FE8340" data-color="1"></path>
        <path d="M98.438 86.523c-.954 0-1.729-.773-1.729-1.724s.775-1.724 1.729-1.724 1.729.773 1.729 1.724-.775 1.724-1.729 1.724zm0-2.597a.878.878 0 0 0-.879.874.879.879 0 0 0 1.758 0 .878.878 0 0 0-.879-.874z" fill="#FE8340" data-color="1"></path>
        <path d="M64.339 126.737h-2.792a.425.425 0 0 1-.425-.425v-.933c0-.146.076-.283.2-.36l.775-.483-1.144-5.169a.422.422 0 0 1 .415-.516h.004l1.019.011c.322-.023 1.678-.005 1.954 0a.424.424 0 0 1 .418.425v7.026a.423.423 0 0 1-.424.424zm-2.367-.849h1.942v-6.182a32.277 32.277 0 0 0-1.512.005l-.502-.005 1.093 4.94a.425.425 0 0 1-.19.452l-.831.518v.272z" fill="#FE8340" data-color="1"></path>
        <path d="M68.803 126.737h-2.792a.425.425 0 0 1-.425-.425v-7.026c0-.232.187-.422.418-.425.276-.005 1.633-.023 1.954 0l1.019-.011c.135.045.253.057.334.157s.113.232.085.359l-1.144 5.169.775.483c.125.077.2.214.2.36v.933a.423.423 0 0 1-.424.426zm-2.367-.849h1.942v-.271l-.831-.518a.424.424 0 0 1-.19-.452l1.093-4.94-.502.005a32.289 32.289 0 0 0-1.512-.005v6.181z" fill="#FE8340" data-color="1"></path>
        <path d="M97.464 125.729h-2.51a.426.426 0 0 1-.425-.41l-.354-10.175a.424.424 0 0 1 .41-.439.438.438 0 0 1 .439.41l.339 9.765h1.704l.68-9.604c.016-.234.232-.424.454-.394.234.017.411.22.394.454l-.708 9.998a.422.422 0 0 1-.423.395z" fill="#FE8340" data-color="1"></path>
        <path d="M102.038 125.729h-2.511a.426.426 0 0 1-.425-.41l-.354-10.175a.424.424 0 0 1 .41-.439.438.438 0 0 1 .439.41l.339 9.765h1.704l.679-9.604c.016-.234.222-.424.454-.394.234.017.411.22.394.454l-.707 9.998a.421.421 0 0 1-.422.395z" fill="#FE8340" data-color="1"></path>
        <path d="M81.549 125.32c-.597 0-.699-.092-.781-.166a.485.485 0 0 1-.15-.337c-.02-.206-.582-4.058-1.141-7.863l-.646 7.975a.426.426 0 0 1-.424.391h-1.969a.424.424 0 0 1-.424-.4l-.87-14.869a.427.427 0 0 1 .424-.449h7.236c.235 0 .425.19.425.425v14.792a.425.425 0 0 1-.383.423c-.59.056-1.003.078-1.297.078zm-.124-.85c.224-.002.591-.015.955-.042V110.45h-6.361l.82 14.02h1.176l.916-11.3a.426.426 0 0 1 .845-.029c.673 4.566 1.459 9.923 1.649 11.329z" fill="#FE8340" data-color="1"></path>
        <path d="M79.065 107.539a.425.425 0 0 1-.425-.425v-6.348a.425.425 0 0 1 .85 0v6.348c0 .235-.19.425-.425.425z" fill="#FE8340" data-color="1"></path>
        <path d="M73.022 111.196h-.012c-.756-.021-1.665-.03-1.816-.007a.448.448 0 0 1-.343-.092.425.425 0 0 1-.161-.311c-.39-10.787 5.266-11.932 5.507-11.975a.42.42 0 0 1 .494.343.424.424 0 0 1-.341.493c-.218.042-5.028 1.088-4.823 10.679.323-.008.734.001 1.076.009.018-.785.083-1.6.195-2.425l.035-.279c.141-1.164.404-3.33 1.755-3.525a.426.426 0 0 1 .468.3c.236.792.363 1.626.486 2.433.083.542.165 1.083.28 1.609a.425.425 0 0 1-.83.182 26.817 26.817 0 0 1-.291-1.663c-.092-.602-.186-1.219-.325-1.809-.453.544-.626 1.972-.7 2.576l-.037.291a20.634 20.634 0 0 0-.192 2.746.426.426 0 0 1-.425.425z" fill="#FE8340" data-color="1"></path>
        <path d="M86.864 111.196a.458.458 0 0 1-.083-.008c-.146-.024-1.056-.013-1.812.008a.424.424 0 0 1-.437-.425c0-.881-.065-1.805-.193-2.747l-.036-.29c-.073-.604-.247-2.032-.7-2.575-.139.589-.233 1.206-.325 1.808-.086.561-.171 1.12-.291 1.663a.425.425 0 0 1-.83-.182c.115-.526.197-1.067.28-1.609.123-.807.25-1.641.486-2.433a.432.432 0 0 1 .468-.3c1.352.195 1.614 2.362 1.755 3.525l.035.278c.112.826.178 1.641.195 2.426.341-.008.752-.018 1.075-.009.205-9.659-4.77-10.669-4.82-10.679a.424.424 0 1 1 .151-.836c.241.043 5.897 1.188 5.507 11.975a.422.422 0 0 1-.162.318.415.415 0 0 1-.263.092z" fill="#FE8340" data-color="1"></path>
    </g>
</svg>