<svg preserveAspectRatio="xMidYMid meet" data-bbox="16.886 13.35 163.27 171.32" viewBox="16.886 13.35 163.27 171.32" height="200" width="200" xmlns="http://www.w3.org/2000/svg" data-type="color" role="img"><defs><style>#comp-jrta91n9 svg [data-color="1"] {fill: #FE8340;}</style></defs>
    <g>
        <path d="M49.022 157.483a.65.65 0 0 1-.205-1.267l123.147-40.932a.65.65 0 1 1 .41 1.234L49.228 157.45a.647.647 0 0 1-.206.033z" fill="rgba(254, 131, 64, 1)" data-color="1"></path>
        <path d="M59.568 168.227a.65.65 0 0 1-.205-1.267l37.09-12.328a.65.65 0 1 1 .41 1.234l-37.09 12.328a.666.666 0 0 1-.205.033z" fill="rgba(254, 131, 64, 1)" data-color="1"></path>
        <path d="M89.517 174.896a.65.65 0 0 1-.205-1.267l68.5-22.768a.65.65 0 1 1 .41 1.234l-68.5 22.768a.675.675 0 0 1-.205.033z" fill="rgba(254, 131, 64, 1)" data-color="1"></path>
        <path d="M138.437 138.847a.65.65 0 0 1-.205-1.267l30.75-10.221a.65.65 0 1 1 .41 1.234l-30.75 10.221a.675.675 0 0 1-.205.033z" fill="rgba(254, 131, 64, 1)" data-color="1"></path>
        <path d="M101.398 154.447a.65.65 0 0 1-.205-1.267l9.387-3.12a.65.65 0 1 1 .41 1.234l-9.387 3.12a.637.637 0 0 1-.205.033z" fill="rgba(254, 131, 64, 1)" data-color="1"></path>
        <path d="M114.737 150.014a.65.65 0 0 1-.205-1.267l1.482-.492a.65.65 0 1 1 .41 1.234l-1.482.492a.666.666 0 0 1-.205.033z" fill="rgba(254, 131, 64, 1)" data-color="1"></path>
        <path d="M133.589 155.327a.65.65 0 0 1-.114-1.29c1.516-.27 2.519-.888 2.98-1.838.634-1.302.316-3.383-.867-5.755-3.081 1.221-4.82 2.63-5.04 4.093-.243 1.615 1.451 2.934 1.468 2.946a.651.651 0 0 1-.786 1.036c-.095-.072-2.319-1.786-1.969-4.166.307-2.075 2.465-3.87 6.415-5.334a.648.648 0 0 1 .825.36c.95 1.792 2.286 5 1.123 7.388-.654 1.346-1.974 2.203-3.921 2.549a.629.629 0 0 1-.114.011z" fill="rgba(254, 131, 64, 1)" data-color="1"></path>
        <path d="M131.739 160.84a.65.65 0 0 1-.647-.611c-.014-.229-.303-5.667 2.674-9.326a.65.65 0 1 1 1.008.82c-2.66 3.271-2.388 8.377-2.385 8.428a.65.65 0 0 1-.609.688l-.041.001z" fill="rgba(254, 131, 64, 1)" data-color="1"></path>
        <path d="M166.73 113.006a.65.65 0 0 1-.114-1.29c1.516-.271 2.519-.889 2.98-1.839.634-1.303.316-3.383-.866-5.754-3.087 1.222-4.826 2.633-5.042 4.098-.24 1.627 1.45 2.927 1.468 2.939a.65.65 0 0 1-.785 1.037c-.095-.072-2.32-1.787-1.969-4.166.307-2.075 2.465-3.87 6.415-5.333a.65.65 0 0 1 .825.359c.95 1.791 2.286 4.998 1.123 7.388-.654 1.346-1.974 2.203-3.921 2.55a.612.612 0 0 1-.114.011z" fill="rgba(254, 131, 64, 1)" data-color="1"></path>
        <path d="M164.881 118.518a.65.65 0 0 1-.647-.611c-.014-.229-.303-5.667 2.674-9.326a.649.649 0 1 1 1.008.82c-2.66 3.271-2.388 8.377-2.385 8.428a.65.65 0 0 1-.609.688l-.041.001z" fill="rgba(254, 131, 64, 1)" data-color="1"></path>
        <path d="M51.019 151.971a2.9 2.9 0 0 1-1.204-.264c-2.247-1.014-3.312-4.774-3.747-6.926l.01-.003a.649.649 0 0 1 .425-.876c2.59-.725 4.563-.519 5.867.613 1.937 1.685 1.551 4.732 1.534 4.861a.654.654 0 0 1-.729.557.652.652 0 0 1-.56-.729c.003-.025.307-2.492-1.103-3.712-.86-.745-2.229-.91-4.068-.49.659 2.942 1.731 4.989 2.906 5.52.555.25 1.166.177 1.867-.227a.65.65 0 1 1 .651 1.125c-.636.367-1.254.551-1.849.551z" fill="rgba(254, 131, 64, 1)" data-color="1"></path>
        <path d="M56.354 155.14a.65.65 0 0 1-.569-.335c-.024-.044-2.504-4.452-5.587-5.797a.65.65 0 0 1 .519-1.191c3.489 1.521 6.095 6.16 6.204 6.357a.65.65 0 0 1-.567.966z" fill="rgba(254, 131, 64, 1)" data-color="1"></path>
        <path d="M98.442 184.67c-12.534 0-24.988-2.927-36.519-8.718-19.489-9.789-34.005-26.592-40.874-47.313C6.87 85.863 30.088 39.512 72.806 25.312c11.704-3.891 23.794-5.082 35.938-3.537a.649.649 0 1 1-.165 1.289c-11.946-1.517-23.846-.347-35.363 3.482C31.178 40.52 8.329 86.134 22.283 128.23c6.759 20.392 21.044 36.927 40.223 46.56 19.18 9.634 40.955 11.21 61.319 4.442 42.038-13.973 64.887-59.587 50.933-101.684-6.843-20.644-21.353-37.291-40.857-46.876a.65.65 0 0 1 .574-1.166c19.819 9.739 34.564 26.655 41.518 47.634 14.179 42.775-9.039 89.127-51.757 103.326-8.452 2.809-17.142 4.204-25.794 4.204z" fill="rgba(254, 131, 64, 1)" data-color="1"></path>
        <path d="M103.095 117.896a.651.651 0 0 1-.131-1.288l29.073-6.035 6.197-16.209-59.567 9.39a.65.65 0 1 1-.203-1.283l60.677-9.565a.651.651 0 0 1 .709.874l-6.725 17.591a.65.65 0 0 1-.476.404l-29.422 6.107a.65.65 0 0 1-.132.014z" fill="rgba(254, 131, 64, 1)" data-color="1"></path>
        <path d="M102.85 130.529l-.022-.001a.652.652 0 0 1-.598-.453l-8.746-27.625a.65.65 0 0 1 1.24-.392l8.193 25.882 3.601-9.111a.651.651 0 0 1 1.209.479l-4.272 10.812a.656.656 0 0 1-.605.409z" fill="rgba(254, 131, 64, 1)" data-color="1"></path>
        <path d="M64.496 148.374a.65.65 0 0 1-.622-.462l-10.223-33.755a.65.65 0 0 1 1.245-.377l10.021 33.089 2.41-.911c-2.202-6.731-5.33-29.021-5.466-29.996a.651.651 0 0 1 1.21-.409l14.869 26.393 1.807-.684-11.474-32.603a.65.65 0 0 1 1.226-.432l11.685 33.202a.65.65 0 0 1-.384.824l-2.923 1.105a.652.652 0 0 1-.796-.289l-13.435-23.846c1.033 6.975 3.447 22.477 5.11 26.888a.651.651 0 0 1-.379.838l-3.653 1.382a.636.636 0 0 1-.228.043z" fill="rgba(254, 131, 64, 1)" data-color="1"></path>
        <path d="M120.61 130.046a7.272 7.272 0 0 1-2.998-.651 7.245 7.245 0 0 1-3.817-4.072c-1.419-3.765.484-7.984 4.244-9.406a7.239 7.239 0 0 1 5.576.178 7.25 7.25 0 0 1 3.818 4.073c1.419 3.765-.485 7.983-4.245 9.405a7.288 7.288 0 0 1-2.578.473zm.006-13.303c-.714 0-1.43.129-2.118.39-3.089 1.168-4.653 4.636-3.486 7.73a5.948 5.948 0 0 0 3.137 3.347 5.934 5.934 0 0 0 4.581.146c3.09-1.168 4.654-4.636 3.487-7.729a5.958 5.958 0 0 0-3.138-3.348 5.952 5.952 0 0 0-2.463-.536z" fill="rgba(254, 131, 64, 1)" data-color="1"></path>
        <path d="M51.984 112.977a.65.65 0 0 1-.631-.496c-.257-1.052-6.174-25.837 5.598-31.15a.657.657 0 0 1 .489-.019l6.771 2.457a.652.652 0 0 1 .387.382l4.333 11.494 8.409 4.99a.651.651 0 0 1 .261.826l-.91 2.016a.656.656 0 0 1-.363.341.64.64 0 0 1-.497-.017l-11.072-5.01a.647.647 0 0 1-.305-.284l-5.6-10.423a.65.65 0 1 1 1.145-.615l5.496 10.229 10.279 4.651.402-.893-8.104-4.811a.646.646 0 0 1-.276-.329l-4.309-11.428-6.235-2.263c-9.473 4.631-5.648 24.858-4.788 28.858l16.401-5.397a.65.65 0 1 1 .406 1.234l-17.082 5.622a.61.61 0 0 1-.205.035z" fill="rgba(254, 131, 64, 1)" data-color="1"></path>
        <path d="M74.897 106.733a.608.608 0 0 1-.146-.018l-12.525-2.896a.644.644 0 0 1-.398-.279l-5.124-7.898a.649.649 0 1 1 1.089-.707l4.981 7.678 11.75 2.717.299-.664a.65.65 0 1 1 1.185.535l-.519 1.15a.65.65 0 0 1-.592.382z" fill="rgba(254, 131, 64, 1)" data-color="1"></path>
        <path d="M62.806 81.378c-.154 0-.25-.009-.267-.011-5.704-.588-6.07-8.246-6.083-8.572a.65.65 0 0 1 .623-.675.655.655 0 0 1 .676.623c.003.068.335 6.858 4.92 7.331.051.003 1.291.107 2.236-.857.955-.977 1.311-2.78 1.027-5.214a.65.65 0 0 1 1.291-.151c.337 2.893-.137 5.01-1.408 6.292-1.095 1.107-2.449 1.234-3.015 1.234z" fill="rgba(254, 131, 64, 1)" data-color="1"></path>
        <path d="M73.197 74.024a.582.582 0 0 1-.109-.01l-21.399-3.613a.649.649 0 0 1-.532-.749.646.646 0 0 1 .749-.532l21.399 3.613a.65.65 0 1 1-.108 1.291z" fill="rgba(254, 131, 64, 1)" data-color="1"></path>
        <path d="M66.992 70.607a.65.65 0 0 1-.603-.407l-1.378-3.424-4.072-1.323-3.274 3.546a.649.649 0 1 1-.955-.881l3.557-3.853a.646.646 0 0 1 .679-.178l4.757 1.546c.183.06.33.197.401.375l1.491 3.705a.649.649 0 0 1-.603.894z" fill="rgba(254, 131, 64, 1)" data-color="1"></path>
        <path d="M98.909 97.756a.65.65 0 0 1-.649-.836c.156-.522 3.931-12.806 12.384-15.193 4.274-1.205 8.929.358 13.844 4.649a8.251 8.251 0 0 1 3.606-.291c2.024.299 4.824 1.573 6.68 5.94a.652.652 0 0 1-.344.853.653.653 0 0 1-.853-.344c-3.058-7.202-8.74-4.919-8.98-4.819a.655.655 0 0 1-.686-.114c-4.667-4.167-9.007-5.72-12.912-4.624-7.767 2.191-11.459 14.195-11.496 14.316a.646.646 0 0 1-.594.463z" fill="rgba(254, 131, 64, 1)" data-color="1"></path>
        <path d="M129.952 109.414a.65.65 0 0 1-.616-.857l3.542-10.535a.65.65 0 1 1 1.232.414l-3.542 10.535a.65.65 0 0 1-.616.443z" fill="rgba(254, 131, 64, 1)" data-color="1"></path>
        <path d="M128.477 103.284a.65.65 0 0 1-.618-.85l1.543-4.764a.649.649 0 1 1 1.236.4l-1.543 4.764a.65.65 0 0 1-.618.45z" fill="rgba(254, 131, 64, 1)" data-color="1"></path>
        <path d="M124.387 84.208c-.236 0-.535-.085-.913-.317-2.115-1.302-7.016-7.303-4.099-15.116a.653.653 0 0 1 .958-.321c.255.162 6.251 4.033 6.92 9.178.291 2.245-.473 4.371-2.272 6.32v.001a.783.783 0 0 1-.594.255zm.116-.696h.01-.01zm-.477-.442c-.001 0-.001 0 0 0-.001 0-.001 0 0 0zm-3.705-13.039c-1.224 3.996-.206 7.233.911 9.293 1.088 2.006 2.438 3.203 3.003 3.512 1.375-1.585 1.957-3.278 1.729-5.037-.467-3.589-4.103-6.628-5.643-7.768z" fill="rgba(254, 131, 64, 1)" data-color="1"></path>
        <path d="M126.801 85.202a.65.65 0 0 1-.382-1.177c.887-.644 8.754-6.197 11.979-3.215a.65.65 0 0 1-.883.955c-2.072-1.918-8.31 1.844-10.332 3.312a.653.653 0 0 1-.382.125z" fill="rgba(254, 131, 64, 1)" data-color="1"></path>
        <path d="M121.281 41.006c-7.615 0-13.811-6.203-13.811-13.828s6.195-13.828 13.811-13.828 13.811 6.203 13.811 13.828-6.196 13.828-13.811 13.828zm0-26.356c-6.898 0-12.51 5.619-12.51 12.527s5.611 12.527 12.51 12.527 12.51-5.619 12.51-12.527-5.611-12.527-12.51-12.527z" fill="rgba(254, 131, 64, 1)" data-color="1"></path>
        <path d="M85.696 87.175a.65.65 0 0 1-.534-1.019l28.406-41.19a.649.649 0 1 1 1.07.738l-28.406 41.19a.651.651 0 0 1-.536.281z" fill="rgba(254, 131, 64, 1)" data-color="1"></path>
        <path d="M128.836 56.706a.651.651 0 0 1-.64-.541l-1.922-11.297a.65.65 0 0 1 .531-.75.645.645 0 0 1 .75.531l1.922 11.297a.65.65 0 0 1-.641.76z" fill="rgba(254, 131, 64, 1)" data-color="1"></path>
        <path d="M135.699 41.57a.65.65 0 0 1-.558-.314l-1.032-1.713a.65.65 0 0 1 1.114-.672l1.032 1.713a.65.65 0 0 1-.556.986z" fill="rgba(254, 131, 64, 1)" data-color="1"></path>
        <path d="M151.323 67.497a.65.65 0 0 1-.558-.314l-1.953-3.241a.65.65 0 0 1 1.114-.672l1.953 3.241a.65.65 0 0 1-.556.986zm-3.906-6.482a.65.65 0 0 1-.558-.315l-1.952-3.24a.65.65 0 1 1 1.114-.67l1.952 3.24a.65.65 0 0 1-.556.985zm-3.905-6.482a.65.65 0 0 1-.558-.314l-1.953-3.241a.65.65 0 0 1 1.114-.672l1.953 3.241a.65.65 0 0 1-.556.986zm-3.907-6.481a.65.65 0 0 1-.558-.314l-1.953-3.241a.65.65 0 0 1 1.114-.672l1.953 3.241a.65.65 0 0 1-.556.986z" fill="rgba(254, 131, 64, 1)" data-color="1"></path>
        <path d="M154.309 72.451a.65.65 0 0 1-.558-.314l-1.032-1.713a.65.65 0 0 1 1.114-.672l1.032 1.713a.65.65 0 0 1-.556.986z" fill="rgba(254, 131, 64, 1)" data-color="1"></path>
        <path d="M105.133 38.576a.65.65 0 0 1-.206-1.266l1.896-.634a.646.646 0 0 1 .822.41.648.648 0 0 1-.41.822l-1.896.634a.644.644 0 0 1-.206.034z" fill="rgba(254, 131, 64, 1)" data-color="1"></path>
        <path d="M49.264 57.249a.65.65 0 0 1-.206-1.266l3.991-1.333a.647.647 0 0 1 .822.41.648.648 0 0 1-.41.822l-3.991 1.333a.649.649 0 0 1-.206.034zm7.981-2.667a.65.65 0 0 1-.206-1.266l3.99-1.334a.647.647 0 0 1 .822.41.648.648 0 0 1-.41.822l-3.99 1.334a.644.644 0 0 1-.206.034zm7.982-2.668a.65.65 0 0 1-.206-1.266l3.99-1.334a.647.647 0 0 1 .822.41.648.648 0 0 1-.41.822l-3.99 1.334a.649.649 0 0 1-.206.034zm7.981-2.667a.65.65 0 0 1-.206-1.266l3.99-1.334a.646.646 0 0 1 .822.41.648.648 0 0 1-.41.822l-3.99 1.334a.644.644 0 0 1-.206.034zm7.98-2.668a.65.65 0 0 1-.206-1.266l3.991-1.334c.342-.116.708.069.822.41s-.069.709-.41.822l-3.991 1.334a.64.64 0 0 1-.206.034zm7.982-2.668a.65.65 0 0 1-.206-1.266l3.99-1.333a.647.647 0 0 1 .822.41.648.648 0 0 1-.41.822l-3.99 1.333a.644.644 0 0 1-.206.034zm7.981-2.667a.65.65 0 0 1-.206-1.266l3.99-1.334a.646.646 0 0 1 .822.41.648.648 0 0 1-.41.822l-3.99 1.334a.64.64 0 0 1-.206.034z" fill="rgba(254, 131, 64, 1)" data-color="1"></path>
        <path d="M43.377 59.218a.65.65 0 0 1-.206-1.266l1.896-.635a.645.645 0 0 1 .822.41.648.648 0 0 1-.41.822l-1.896.635a.644.644 0 0 1-.206.034z" fill="rgba(254, 131, 64, 1)" data-color="1"></path>
        <path d="M78.389 32.581a.652.652 0 0 1-.646-.578.652.652 0 0 1 .574-.719l24.051-2.681c.351-.026.679.217.719.574a.652.652 0 0 1-.574.719l-24.051 2.681a.893.893 0 0 1-.073.004z" fill="rgba(254, 131, 64, 1)" data-color="1"></path>
    </g>
</svg>