<svg xmlns="http://www.w3.org/2000/svg" width="19" viewBox="0 0 19 19" role="img" class="_3p7bQ blog-desktop-header-search-icon-fill"><path fill="#ffff" d="M12.8617648,11.8617648 L15.8633394,14.8633394 C15.9414442,14.9414442 15.9414442,15.0680772 15.8633394,15.1461821 L15.1461821,15.8633394 C15.0680772,15.9414442 14.9414442,15.9414442 14.8633394,15.8633394 L11.8617648,12.8617648 C10.9329713,13.578444 9.76865182,14.0047607 8.50476074,14.0047607 C5.46719462,14.0047607 3.00476074,11.5423269 3.00476074,8.50476074 C3.00476074,5.46719462 5.46719462,3.00476074 8.50476074,3.00476074 C11.5423269,3.00476074 14.0047607,5.46719462 14.0047607,8.50476074 C14.0047607,9.76865182 13.578444,10.9329713 12.8617648,11.8617648 Z M8.5,13 C10.9852814,13 13,10.9852814 13,8.5 C13,6.01471863 10.9852814,4 8.5,4 C6.01471863,4 4,6.01471863 4,8.5 C4,10.9852814 6.01471863,13 8.5,13 Z"></path></svg>