<svg preserveAspectRatio="xMidYMid meet" data-bbox="32.751 39.154 134.5 122.5" viewBox="32.751 39.154 134.5 122.5" height="200" width="200" xmlns="http://www.w3.org/2000/svg" data-type="color" role="img">
    <g>
        <path d="M143.569 142.553c-.065 0-.131-.005-.196-.016l-42.407-6.742a1.25 1.25 0 1 1 .393-2.469l41.729 6.634 15.979-18.099-83.827-17.538a1.25 1.25 0 0 1 .511-2.447l85.931 17.978a1.25 1.25 0 0 1 .681 2.051l-17.856 20.225c-.24.271-.583.423-.938.423z" fill = "rgba(41, 62, 49, 1)" data-color="1"></path>
        <path d="M94.465 152.665a1.25 1.25 0 0 1-1.247-1.317l2.096-39.044a1.238 1.238 0 0 1 1.315-1.181 1.25 1.25 0 0 1 1.181 1.315l-1.907 35.521 7.648-8.471a1.25 1.25 0 0 1 1.856 1.676l-10.014 11.09a1.252 1.252 0 0 1-.928.411z" fill = "rgba(41, 62, 49, 1)" data-color="1"></path>
        <path d="M58.754 157.16H54.29a1.25 1.25 0 0 1-1.236-1.061l-5.675-37.145c-2.249 10.522-6.347 30.575-6.347 36.956 0 .69-.56 1.25-1.25 1.25h-5.58a1.25 1.25 0 0 1-1.247-1.333l3.05-46.067a1.25 1.25 0 0 1 2.495.165l-2.962 44.735h3.032c.576-10.518 7.498-41.476 7.804-42.844.132-.586.672-1.009 1.263-.976a1.25 1.25 0 0 1 1.193 1.06l6.534 42.759h2.167l.975-44.148c.015-.69.584-1.273 1.277-1.222a1.25 1.25 0 0 1 1.222 1.277l-1.001 45.372a1.25 1.25 0 0 1-1.25 1.222z" fill = "rgba(41, 62, 49, 1)" data-color="1"></path>
        <path d="M121.807 161.654c-5.919 0-10.735-4.845-10.735-10.8 0-5.956 4.816-10.801 10.735-10.801 5.92 0 10.736 4.845 10.736 10.801 0 5.955-4.816 10.8-10.736 10.8zm0-19.101c-4.541 0-8.235 3.724-8.235 8.301s3.694 8.3 8.235 8.3 8.236-3.724 8.236-8.3c0-4.577-3.695-8.301-8.236-8.301z" fill = "rgba(41, 62, 49, 1)" data-color="1"></path>
        <path d="M60.286 106.48l-.048-.001-26.285-.995a1.25 1.25 0 0 1-1.189-1.43c.242-1.647 6.145-40.352 24.797-41.526.328-.021.647.087.896.301l7.812 6.742c.241.208.394.5.426.817l1.64 15.804 9.271 8.964a1.25 1.25 0 0 1 .042 1.755l-3.888 4.134a1.25 1.25 0 0 1-1.7.113l-12.977-10.57a1.25 1.25 0 0 1-.45-.805l-2.232-16.854a1.25 1.25 0 0 1 2.478-.328l2.167 16.362 11.689 9.522 2.246-2.389-8.711-8.423a1.25 1.25 0 0 1-.375-.77l-1.636-15.764-7.038-6.074c-14.464 1.566-20.546 31.183-21.753 37.975l24.865.941a1.25 1.25 0 0 1-.047 2.499z" fill = "rgba(41, 62, 49, 1)" data-color="1"></path>
        <path d="M69.094 106.48c-.246 0-.489-.073-.697-.212L53.115 96.011a1.253 1.253 0 0 1-.525-.773l-2.869-13.22a1.25 1.25 0 0 1 2.444-.53l2.762 12.728 13.731 9.216.782-1.42a1.25 1.25 0 0 1 2.19 1.206l-1.44 2.616a1.25 1.25 0 0 1-1.096.646z" fill = "rgba(41, 62, 49, 1)" data-color="1"></path>
        <path d="M67.606 66.602c-1.538 0-2.653-.553-2.722-.588-7.568-3.81-4.119-14.535-3.968-14.99a1.25 1.25 0 0 1 2.374.785c-.03.091-2.923 9.133 2.723 11.975.057.028 1.537.728 3.138-.021 1.678-.786 3-2.955 3.825-6.274a1.25 1.25 0 1 1 2.427.603c-1.035 4.165-2.799 6.843-5.244 7.959a6.138 6.138 0 0 1-2.553.551z" fill = "rgba(41, 62, 49, 1)" data-color="1"></path>
        <path d="M83.926 60.413c-.215 0-.433-.055-.632-.172L56.51 44.51a1.25 1.25 0 1 1 1.265-2.155l26.784 15.73a1.25 1.25 0 0 1-.633 2.328z" fill = "rgba(41, 62, 49, 1)" data-color="1"></path>
        <path d="M77.67 51.83a1.25 1.25 0 0 1-1.249-1.211l-.162-5.155-4.535-3.58-5.948 3.067a1.249 1.249 0 1 1-1.146-2.222l6.663-3.436a1.248 1.248 0 0 1 1.347.13l5.623 4.439c.29.229.463.573.475.942l.18 5.736a1.25 1.25 0 0 1-1.21 1.289l-.038.001z" fill = "rgba(41, 62, 49, 1)" data-color="1"></path>
        <path d="M154.992 115.906c-.68 0-1.237-.545-1.25-1.228-.066-3.69-1.046-6.33-2.913-7.848-2.479-2.014-5.733-1.426-5.765-1.421a1.249 1.249 0 0 1-1.355-.678c-3.911-7.972-8.757-12.325-14.406-12.938-11.283-1.234-22.456 12.621-22.567 12.761a1.249 1.249 0 1 1-1.956-1.556c.49-.616 12.151-15.062 24.793-13.69 6.359.691 11.735 5.244 15.988 13.54 1.479-.087 4.397.053 6.845 2.043 2.464 2.004 3.754 5.281 3.835 9.742a1.25 1.25 0 0 1-1.228 1.272l-.021.001z" fill = "rgba(41, 62, 49, 1)" data-color="1"></path>
        <path d="M145.874 131.043a1.25 1.25 0 0 1-.978-2.027l4.464-5.618a1.25 1.25 0 1 1 1.957 1.555l-4.464 5.618a1.244 1.244 0 0 1-.979.472z" fill = "rgba(41, 62, 49, 1)" data-color="1"></path>
        <path d="M146.743 100.172c-.462 0-1.057-.228-1.712-1.039-2.283-2.829-6.117-13.499 1.719-22.855a1.2 1.2 0 0 1 .983-.447c.378.008.733.186.964.485.269.348 6.577 8.611 4.964 16.04-.709 3.265-2.811 5.838-6.249 7.648a1.438 1.438 0 0 1-.669.168zm.913-20.973c-3.066 4.371-3.344 8.746-2.987 11.764.375 3.173 1.541 5.576 2.206 6.479 2.411-1.426 3.834-3.269 4.344-5.617 1.023-4.712-1.965-10.149-3.563-12.626z" fill = "rgba(41, 62, 49, 1)" data-color="1"></path>
        <path d="M166.001 103.643a1.25 1.25 0 0 1-1.11-.674c-1.575-3.031-10.106-1.827-15.114-.355a1.25 1.25 0 0 1-.706-2.399c1.527-.449 15.011-4.225 18.039 1.601a1.25 1.25 0 0 1-1.109 1.827z" fill = "rgba(41, 62, 49, 1)" data-color="1"></path>
    </g>
</svg>